<?xml version="1.0" standalone="no"?>
<!DOCTYPE svg PUBLIC "-//W3C//DTD SVG 20010904//EN"
 "http://www.w3.org/TR/2001/REC-SVG-20010904/DTD/svg10.dtd">
<svg version="1.0" xmlns="http://www.w3.org/2000/svg"
 width="5600.000000pt" height="3550.000000pt" viewBox="0 0 5600.000000 3550.000000"
 preserveAspectRatio="xMidYMid meet">

<g transform="translate(0.000000,3550.000000) scale(0.100000,-0.100000)"
fill="#000000" stroke="none">
<path d="M0 17750 l0 -17750 10600 0 c7831 0 10600 3 10600 11 0 8 5 8 15 -1
12 -10 18 -10 30 0 22 18 18 28 -9 25 -19 -2 -23 1 -19 16 5 19 6 19 19 2 13
-17 14 -17 7 1 -6 19 -6 19 14 0 11 -10 18 -23 15 -29 -3 -5 3 -3 12 6 9 9 18
32 19 51 1 20 5 34 10 31 4 -2 5 -9 2 -14 -4 -5 -1 -9 4 -9 6 0 11 5 11 11 0
6 7 8 16 5 16 -6 49 19 49 38 1 6 6 10 13 9 6 -2 9 4 5 12 -4 12 -9 13 -19 4
-8 -6 -14 -17 -14 -24 0 -7 -7 -15 -15 -19 -13 -5 -13 -3 0 18 8 12 12 26 8
30 -5 4 -1 6 7 4 8 -1 14 2 15 9 0 6 4 15 9 20 5 5 6 3 2 -5 -9 -15 18 -16 43
0 12 7 16 18 13 31 -4 17 -1 19 16 15 15 -4 22 -2 22 8 0 17 17 19 22 3 3 -8
10 -8 26 2 12 8 20 20 17 27 -3 7 -1 11 4 8 4 -3 17 4 29 14 12 11 28 20 36
20 8 0 18 5 21 10 4 6 11 8 16 5 5 -3 6 2 2 11 -6 16 -7 16 -18 0 -7 -9 -16
-16 -20 -16 -4 0 -2 6 4 14 9 11 9 15 -1 18 -9 3 -9 6 0 12 7 4 12 3 12 -2 0
-15 38 -2 44 14 8 21 25 17 19 -5 -3 -10 -1 -21 4 -24 8 -5 12 12 13 58 1 11
4 15 8 9 4 -6 15 -14 25 -17 16 -6 18 -3 12 21 -4 20 -1 33 10 42 14 12 15 10
6 -14 -9 -23 -8 -26 10 -26 19 0 20 2 8 17 -8 9 -9 14 -3 10 6 -3 17 6 24 21
l13 27 8 -25 c7 -24 7 -24 8 -2 1 12 6 22 12 22 5 0 8 -4 5 -8 -3 -5 1 -9 9
-9 22 0 18 13 -7 24 -22 10 -22 10 4 10 15 0 26 -3 23 -6 -2 -4 0 -13 6 -21 6
-11 9 -8 9 13 0 27 20 58 37 57 4 0 8 5 8 10 0 6 5 11 10 11 6 1 20 5 33 10
14 5 22 5 22 -2 0 -6 4 -7 10 -4 5 3 10 2 10 -3 0 -5 7 -9 17 -9 12 0 11 5 -8
20 -20 17 -21 19 -4 13 34 -13 39 -12 43 9 2 11 8 25 14 30 6 7 7 4 3 -6 -3
-9 1 -22 11 -30 16 -13 17 -12 11 12 -5 21 -3 28 12 32 11 2 25 0 32 -7 9 -8
10 -8 5 2 -4 6 -2 12 3 12 6 0 11 5 11 11 0 5 -4 8 -9 4 -5 -3 -13 0 -17 7 -4
7 -4 10 1 6 4 -4 14 -3 20 2 9 8 14 6 18 -5 6 -15 37 -10 37 6 0 4 -7 6 -15 3
-16 -7 -21 11 -6 21 5 3 16 -4 24 -15 12 -17 16 -18 20 -6 4 9 -1 20 -11 26
-14 9 -12 10 11 5 20 -4 27 -1 27 9 0 10 6 13 15 10 8 -4 15 -1 15 5 0 6 7 8
17 4 13 -5 15 -2 10 11 -5 12 -3 15 6 9 17 -11 67 -12 67 -2 0 5 -5 9 -11 9
-5 0 -7 5 -4 10 4 6 10 8 15 5 5 -3 11 -1 15 5 4 6 11 8 16 4 6 -3 8 5 5 20
-4 22 -1 25 17 22 12 -1 20 -7 18 -12 -1 -5 -7 -8 -12 -6 -5 1 -9 -2 -9 -8 0
-17 15 -11 39 14 14 15 20 30 16 38 -4 7 0 5 10 -4 17 -16 19 -16 37 4 12 14
18 17 18 7 1 -8 6 -4 13 9 7 13 26 29 41 37 34 18 60 19 29 2 -22 -12 -22 -13
-3 -25 16 -10 18 -9 13 4 -4 10 -1 15 8 14 29 -4 37 1 32 20 -6 22 22 29 30 8
3 -8 6 -5 6 5 1 10 6 15 11 12 6 -3 10 -1 10 4 0 6 5 11 11 11 5 0 7 -6 3 -12
-8 -13 17 4 44 30 8 7 18 10 23 7 5 -4 9 0 9 7 0 9 3 9 10 -2 8 -13 10 -12 10
3 0 10 4 16 9 12 5 -3 12 -1 16 5 3 5 17 7 31 4 15 -4 24 -2 24 6 0 6 4 9 9 6
11 -7 23 22 14 36 -4 7 -1 8 6 4 7 -5 10 -15 7 -23 -4 -9 -1 -13 6 -10 7 2 12
13 11 25 -1 11 4 22 12 25 10 4 12 -1 9 -20 -4 -23 -4 -24 11 -9 9 9 21 13 27
10 6 -4 5 2 -1 15 -8 15 -9 21 -1 21 6 0 8 5 5 10 -3 6 -1 10 4 10 6 0 11 -6
11 -12 0 -8 7 -5 15 6 8 11 15 14 15 8 0 -7 4 -12 10 -12 5 0 7 7 4 15 -4 8
-1 15 5 15 6 0 11 -6 11 -12 0 -10 3 -9 9 1 6 9 11 10 15 2 10 -15 -3 -33 -16
-25 -7 5 -8 2 -4 -5 6 -9 12 -9 25 3 10 9 23 16 29 16 6 0 9 7 5 17 -4 11 -3
14 5 9 8 -4 10 -2 6 8 -3 8 -13 12 -22 9 -14 -4 -15 -3 -2 5 10 8 18 8 27 0 9
-7 13 -7 13 1 0 7 5 9 11 5 8 -5 8 -9 -1 -14 -7 -4 -8 -10 -3 -13 6 -4 15 5
21 18 11 23 34 27 62 10 15 -9 12 6 -5 25 -13 14 -13 17 0 17 8 0 12 -4 9 -9
-3 -4 -1 -8 5 -8 5 0 12 10 14 23 3 17 5 16 6 -8 1 -26 3 -27 12 -12 7 11 18
16 34 13 22 -4 23 -2 15 20 -7 18 -6 24 5 24 9 0 12 -6 9 -17 -5 -17 -5 -17 6
-1 11 18 36 26 26 9 -3 -5 1 -11 9 -14 10 -4 12 -1 8 11 -4 9 -11 20 -17 24
-6 5 5 5 24 2 37 -7 37 -7 60 -5 13 1 13 2 0 12 -12 9 -10 10 8 6 18 -4 21 -3
12 8 -16 19 45 43 71 27 21 -13 26 -3 7 16 -13 13 -9 15 47 16 21 1 33 8 42
26 9 17 13 20 13 8 0 -22 18 -32 33 -20 7 6 17 11 22 12 22 4 17 10 -8 8 -14
-1 -23 -6 -21 -10 3 -4 0 -8 -6 -8 -7 0 -9 7 -6 16 3 9 6 17 6 19 0 2 10 1 22
-3 18 -4 20 -2 15 14 -7 18 -6 18 9 -1 11 -14 18 -16 21 -7 3 6 9 10 14 6 5
-3 12 1 15 10 3 8 12 12 20 9 7 -3 21 2 29 11 9 9 22 16 28 16 8 0 8 -3 2 -8
-5 -4 -11 -15 -12 -25 -1 -17 0 -17 18 2 11 11 18 25 17 30 -2 5 0 8 3 7 3 0
13 5 22 12 8 7 27 15 41 18 21 3 24 1 20 -13 -4 -13 -2 -12 8 3 7 12 18 19 25
17 6 -2 14 1 18 6 3 6 0 9 -8 5 -8 -3 -19 2 -26 10 -11 13 -9 15 9 11 12 -2
29 3 37 11 9 8 18 12 21 9 3 -3 0 -11 -6 -17 -7 -7 -12 -19 -11 -27 0 -14 1
-14 6 -1 8 21 47 68 40 48 -3 -9 -3 -19 1 -21 4 -2 1 -2 -5 -1 -7 2 -13 -1
-13 -7 0 -6 8 -9 18 -7 11 2 16 12 15 26 -2 15 2 20 12 16 8 -4 15 -10 15 -15
0 -6 6 -5 12 1 62 52 63 52 66 36 2 -9 8 -14 13 -11 5 4 5 14 -1 25 -10 18 -8
19 17 9 15 -6 24 -7 20 -3 -3 4 1 13 11 21 10 9 11 12 2 7 -9 -4 -12 -3 -7 2
9 9 13 10 43 13 11 1 14 7 10 18 -6 16 -6 16 12 0 16 -15 21 -15 30 -4 7 8 9
17 5 20 -3 4 2 7 11 7 10 0 26 10 35 21 17 21 18 21 44 4 15 -9 27 -13 27 -7
0 5 -7 12 -15 16 -8 3 -15 11 -15 17 0 8 5 7 17 -2 14 -12 16 -12 9 0 -6 9 -5
12 5 9 8 -3 20 2 28 10 12 12 15 12 23 -2 12 -21 38 -21 38 0 0 9 5 12 12 8 7
-5 8 -3 3 6 -6 10 -11 10 -20 -3 -16 -23 -24 -21 -18 3 3 11 9 18 13 15 5 -3
11 1 13 7 4 10 6 9 6 -1 1 -11 4 -11 16 -1 8 7 12 17 8 23 -3 6 -1 7 6 3 6 -4
9 -11 6 -16 -5 -8 18 -20 38 -20 7 0 6 4 -3 10 -13 8 -13 10 2 10 9 0 18 -5
20 -12 3 -7 7 -5 11 6 4 10 3 15 -3 11 -6 -3 -7 1 -4 10 5 12 10 13 20 4 19
-15 38 -1 23 17 -6 8 -9 17 -5 21 3 3 6 2 6 -4 0 -12 36 -10 47 2 5 4 2 5 -6
0 -9 -5 -12 -4 -7 3 3 6 15 9 26 7 11 -2 24 4 30 13 8 14 11 15 19 3 7 -11 12
-10 27 7 10 12 21 19 26 16 4 -3 8 -1 8 4 0 5 9 12 21 15 18 5 18 3 7 -11 -9
-13 -7 -12 9 2 19 16 25 17 40 5 10 -7 15 -9 11 -5 -13 16 29 38 50 27 16 -8
18 -6 17 12 -3 30 5 42 16 26 8 -12 12 -11 22 2 8 11 19 14 32 9 15 -5 23 -1
33 19 7 14 10 18 8 9 -4 -14 -1 -15 17 -8 12 4 21 13 19 20 -1 6 2 9 8 5 5 -3
13 1 16 10 5 13 8 14 18 1 7 -9 17 -11 31 -6 12 5 14 9 6 9 -11 1 -10 5 4 15
16 12 21 11 36 -8 l18 -21 -5 21 c-3 12 -1 25 5 28 6 4 11 0 11 -8 0 -13 4
-14 25 -4 14 6 25 17 25 25 0 7 5 13 11 13 5 0 7 -4 4 -10 -4 -6 1 -7 11 -3
13 5 15 3 9 -7 -5 -9 -4 -11 4 -6 6 4 9 11 6 16 -7 12 5 40 18 40 6 0 19 7 29
17 10 9 18 13 18 10 0 -3 -9 -15 -21 -25 -17 -17 -18 -20 -4 -26 9 -3 13 -2
10 4 -6 9 8 15 29 11 5 -1 6 5 3 14 -4 9 -1 15 9 15 8 0 17 7 20 15 6 14 8 13
20 -2 8 -12 13 -13 14 -5 0 10 5 10 23 1 12 -6 19 -8 15 -4 -12 13 12 34 30
28 13 -4 14 -3 3 5 -20 14 -3 34 22 26 12 -3 29 -15 37 -25 16 -20 16 -20 16
0 0 11 -4 17 -9 14 -5 -3 -3 4 4 16 9 14 16 17 20 9 4 -7 5 -17 1 -23 -3 -5 2
-4 11 4 14 11 15 17 5 28 -9 11 -8 13 3 11 8 -2 17 -7 21 -13 5 -6 8 -3 8 6 0
12 7 15 28 11 24 -5 25 -3 14 10 -9 12 -10 18 -2 23 7 4 14 -2 17 -14 3 -11 9
-18 14 -15 5 3 7 9 4 14 -3 4 3 14 13 21 15 13 16 12 3 -3 -15 -20 -15 -20 20
-22 22 -2 25 1 21 23 -3 16 -1 22 7 17 6 -4 11 -16 11 -27 0 -10 4 -19 8 -19
11 0 12 32 1 45 -4 6 -4 17 0 24 6 9 10 5 15 -13 3 -14 11 -26 17 -26 6 0 7 5
3 12 -5 8 0 9 14 6 15 -4 22 -2 22 8 0 15 12 19 23 7 4 -3 1 -13 -6 -21 -8
-11 -4 -10 16 3 15 10 26 23 24 29 -3 6 2 17 10 24 11 11 13 9 9 -13 -3 -14
-1 -23 4 -20 4 3 11 -1 14 -7 3 -7 3 4 -1 26 -4 26 -2 41 8 46 17 11 29 3 29
-20 0 -13 7 -18 20 -17 23 1 28 17 5 17 -8 0 -15 5 -15 11 0 7 7 8 18 4 9 -3
21 -7 27 -8 5 -1 15 -9 22 -17 10 -13 11 -13 9 1 -1 10 -8 24 -15 33 -8 10 -9
16 -3 16 6 0 14 -5 17 -10 4 -6 11 -7 17 -4 6 4 5 10 -3 16 -9 5 -4 6 14 2 19
-4 34 -1 47 11 18 16 18 16 13 -7 -3 -17 -2 -19 5 -9 5 7 15 10 21 7 6 -4 11
-3 11 3 0 5 -6 12 -12 14 -10 4 -10 6 0 6 7 1 10 7 7 14 -4 6 0 4 9 -6 8 -11
13 -24 12 -30 -2 -7 -1 -9 1 -4 3 4 11 7 19 7 9 0 12 -5 8 -12 -5 -7 -3 -8 5
-4 7 5 10 10 7 13 -11 11 15 43 35 43 11 0 18 4 14 9 -3 5 -1 12 4 15 9 6 27
-31 23 -47 -1 -5 2 -6 7 -2 6 3 8 12 5 20 -5 13 25 33 61 40 6 1 13 3 18 5 4
1 12 3 17 4 6 0 15 7 19 15 5 7 13 11 19 7 6 -3 13 -2 16 3 4 5 -2 12 -11 15
-10 3 0 3 22 0 22 -3 45 -10 50 -16 7 -8 6 -9 -2 -4 -9 5 -11 2 -6 -11 6 -15
8 -13 18 10 9 22 13 25 25 14 8 -6 11 -8 7 -3 -4 5 -2 15 5 23 9 11 14 11 31
-4 11 -10 17 -12 12 -4 -4 8 -2 17 6 22 22 14 39 11 39 -7 0 -14 3 -14 15 -4
8 7 15 21 15 31 0 22 1 23 32 6 14 -7 22 -19 20 -26 -3 -8 0 -11 6 -7 7 4 9
19 6 35 -5 25 -3 29 20 29 14 0 24 -4 23 -8 -1 -5 2 -7 8 -6 5 0 8 8 7 15 -3
12 -1 13 11 3 12 -10 18 -10 31 3 9 9 16 23 16 30 0 8 6 12 14 9 8 -3 12 -12
9 -20 -3 -8 -9 -11 -14 -8 -10 6 -12 -9 -3 -18 9 -10 45 32 38 44 -5 8 0 9 16
5 13 -3 30 -1 38 5 11 9 16 8 23 -4 6 -10 18 -15 31 -13 27 6 28 7 30 38 3 33
6 34 18 5 8 -21 9 -21 9 -3 1 11 10 26 20 32 17 11 21 9 26 -7 7 -22 20 -26
30 -10 5 8 11 7 21 -1 13 -10 14 -8 10 14 -5 31 10 37 19 7 4 -11 11 -18 16
-14 6 3 5 12 -3 22 -12 15 -10 15 14 0 23 -15 27 -15 32 -2 3 8 2 12 -4 9 -6
-3 -10 -1 -10 5 0 15 43 30 56 19 21 -17 63 8 77 45 6 15 10 16 22 6 12 -10
15 -10 15 0 0 7 7 10 15 6 8 -3 15 -1 15 4 0 6 -9 10 -19 10 -11 0 -22 4 -25
9 -3 4 6 6 19 3 31 -6 63 17 43 30 -11 8 -11 9 0 6 8 -2 13 -7 13 -11 -1 -4
-1 -14 -1 -23 0 -8 -4 -13 -8 -10 -5 3 -9 -1 -9 -9 0 -13 3 -13 18 1 11 9 23
13 31 8 10 -6 9 -3 -1 10 -19 22 2 48 22 27 9 -11 9 -12 0 -7 -9 5 -11 2 -7
-8 4 -12 9 -12 18 -3 15 13 17 39 3 30 -5 -3 -4 4 3 16 8 16 17 20 31 16 11
-4 19 -2 19 5 0 6 4 9 9 5 5 -3 12 -1 16 5 4 6 12 4 22 -6 12 -12 18 -13 24
-3 4 7 5 18 2 25 -3 9 4 11 26 8 21 -4 31 -1 31 8 0 9 3 9 10 -2 5 -8 10 -10
11 -5 0 6 4 1 9 -10 8 -18 9 -17 9 8 1 17 6 27 17 27 8 0 13 4 10 9 -4 5 2 8
11 6 10 -2 22 -4 26 -4 5 -1 5 -6 2 -12 -5 -7 7 -9 37 -5 23 3 49 5 56 5 7 1
10 6 7 12 -4 6 -14 7 -24 4 -40 -16 -58 -13 -58 12 0 23 0 23 16 4 15 -17 19
-18 44 -5 15 8 27 11 27 7 0 -4 5 -1 11 7 9 12 10 11 6 -8 -3 -12 -1 -20 4
-16 5 3 9 -1 9 -8 0 -10 3 -9 10 2 5 8 5 17 1 20 -4 3 -10 12 -13 20 -4 11 1
16 16 17 11 0 15 -1 9 -4 -7 -3 -13 -9 -13 -14 0 -6 5 -7 10 -4 6 3 10 2 10
-3 0 -6 9 -8 20 -5 11 3 20 9 20 14 0 5 -8 5 -17 2 -15 -6 -16 -5 -3 9 8 9 17
13 20 9 8 -12 40 -21 40 -11 0 5 -8 10 -17 13 -10 2 4 3 31 2 29 -1 52 -7 54
-14 6 -18 32 7 33 33 0 11 3 15 6 8 2 -6 9 -10 14 -7 5 3 18 1 29 -5 17 -9 20
-8 20 12 0 17 2 20 9 9 8 -12 12 -12 26 2 15 16 18 15 43 0 21 -14 24 -14 15
-2 -8 9 -9 20 -3 29 8 13 10 12 10 -2 0 -10 7 -18 16 -18 10 0 14 7 12 22 -2
11 2 23 8 25 7 2 10 -6 7 -22 -4 -18 -1 -25 11 -25 9 0 16 5 16 10 0 6 -5 10
-12 10 -15 0 -2 13 16 16 8 1 12 -7 10 -25 -2 -14 -1 -18 2 -8 3 9 10 14 16
11 6 -4 8 -2 5 3 -4 6 0 13 8 16 10 4 12 1 9 -11 -5 -15 -4 -15 6 1 6 9 8 22
4 28 -5 8 -1 8 14 0 46 -24 69 -11 63 36 -1 8 5 10 14 7 12 -5 13 -10 6 -17
-6 -6 -11 -16 -11 -21 0 -6 5 -4 10 4 7 12 12 12 22 2 9 -9 9 -12 0 -12 -7 0
-12 -8 -12 -17 0 -15 2 -16 10 -3 9 15 13 16 48 19 11 1 13 4 5 9 -8 5 -5 14
10 32 11 14 18 18 14 8 -3 -10 3 -23 15 -35 21 -18 21 -18 16 9 -3 19 0 32 11
40 14 12 15 11 1 -6 -14 -18 -13 -19 8 -14 19 5 21 4 11 -8 -9 -11 -8 -14 5
-14 9 0 16 7 16 16 0 8 5 12 10 9 6 -3 10 -1 10 5 0 6 11 4 25 -6 24 -15 25
-15 19 0 -5 12 -2 17 7 16 34 -5 48 0 42 16 -5 13 -7 13 -14 2 -7 -10 -9 -9
-9 3 0 12 8 16 24 15 13 0 22 -4 20 -8 -9 -14 14 -17 26 -3 9 10 9 15 1 15
-12 0 -10 35 3 47 4 5 6 2 4 -6 -1 -7 3 -16 11 -19 8 -2 11 0 7 6 -3 6 -1 14
5 18 7 4 9 3 6 -3 -4 -6 -1 -16 7 -22 11 -9 13 -6 11 14 -2 14 1 27 5 30 5 3
7 -3 5 -13 -2 -11 3 -19 10 -19 8 0 13 4 12 7 -1 4 10 18 24 32 25 24 63 29
89 13 8 -5 11 -4 7 2 -10 16 25 26 36 11 6 -9 7 -8 3 4 -3 10 -1 18 3 18 5 0
7 10 5 23 -3 16 -1 15 7 -6 6 -15 15 -25 20 -21 5 3 6 10 3 16 -5 7 -2 8 5 4
8 -5 14 0 18 13 3 12 12 21 19 21 8 0 14 8 15 18 0 14 2 14 9 -3 6 -13 9 -15
9 -5 1 13 2 13 11 0 5 -8 10 -11 10 -6 0 5 6 3 14 -3 11 -9 15 -8 20 5 3 9 4
19 2 23 -3 4 4 7 14 8 11 1 22 -3 25 -8 9 -14 25 -1 19 16 -4 10 0 12 17 8 13
-4 18 -8 11 -11 -6 -2 -12 -8 -12 -12 0 -5 15 -3 34 5 18 8 36 11 40 8 3 -4 6
-1 6 6 0 8 -7 10 -21 6 -15 -5 -20 -3 -17 6 6 18 36 20 42 3 5 -12 9 -11 24 3
10 10 17 21 15 26 -2 4 3 7 12 7 9 0 14 -4 11 -9 -3 -5 2 -15 12 -22 16 -13
16 -13 2 5 -14 18 -13 19 13 14 24 -5 27 -2 25 16 -3 18 2 21 35 22 21 1 40
-3 43 -7 3 -5 0 -9 -7 -9 -7 0 -10 -2 -7 -5 10 -10 37 7 32 19 -6 16 13 31 49
40 23 6 30 3 34 -13 3 -13 10 -18 20 -14 14 5 13 8 -2 20 -10 7 -16 15 -13 18
7 8 38 -5 38 -16 0 -13 27 -11 35 2 4 6 1 9 -6 8 -18 -3 -49 11 -49 21 0 5 8
7 18 5 9 -2 17 -4 17 -5 0 -1 8 -3 17 -5 11 -2 15 2 11 11 -7 20 14 18 25 -3
9 -14 10 -14 16 5 4 11 22 30 41 40 28 17 34 18 39 6 3 -8 9 -14 13 -13 4 1
10 1 13 -1 26 -10 47 -7 47 6 0 9 -6 13 -14 10 -8 -3 -11 -1 -8 4 3 6 -1 13
-11 17 -15 5 -14 8 6 15 13 5 25 6 28 3 3 -3 0 -5 -6 -5 -7 0 -12 -4 -12 -10
0 -5 9 -10 21 -10 11 0 18 -4 15 -9 -4 -5 2 -8 11 -6 10 2 22 4 26 4 5 1 5 6
1 12 -4 8 -9 7 -15 -2 -5 -8 -9 -9 -9 -4 0 6 4 16 9 24 6 10 10 10 16 1 4 -6
14 -9 22 -5 14 5 14 3 2 -12 -12 -16 -12 -17 2 -6 9 7 19 10 23 6 4 -4 4 0 0
10 -6 17 29 56 50 57 6 0 2 -6 -7 -13 -14 -11 -14 -14 -2 -31 8 -11 15 -15 15
-10 0 6 -5 15 -12 22 -9 9 -7 12 10 12 12 0 22 5 22 12 0 6 7 3 15 -8 15 -18
15 -18 10 6 -4 18 0 28 12 36 16 10 18 8 18 -10 -1 -12 -5 -29 -10 -37 -8 -12
-6 -12 9 0 9 8 15 20 12 27 -8 22 13 27 32 7 9 -10 14 -14 10 -9 -3 4 -4 15
-1 23 5 12 7 12 14 1 7 -10 9 -9 9 4 0 9 -6 19 -12 21 -10 4 -10 6 0 6 14 1
33 -39 24 -53 -3 -5 0 -6 6 -2 6 4 8 14 5 24 -6 15 -5 16 13 2 18 -14 18 -14
5 3 -8 9 -10 21 -6 25 4 4 10 1 12 -5 3 -7 9 -13 15 -13 6 0 8 7 4 15 -3 9 0
15 10 15 8 0 12 5 9 10 -4 6 5 10 19 10 14 0 26 -4 26 -9 0 -6 9 -9 20 -8 20
1 20 2 -2 20 -22 18 -22 18 -1 8 28 -14 36 -14 27 0 -4 7 2 9 17 7 17 -2 24 2
24 14 0 9 4 20 8 24 11 12 38 14 31 3 -3 -5 -11 -6 -17 -3 -9 5 -9 4 -1 -5 7
-8 19 -9 34 -3 15 6 19 11 12 16 -7 4 -12 12 -12 18 0 6 3 8 7 5 3 -4 16 2 28
13 17 16 22 17 22 5 0 -8 -6 -15 -13 -15 -7 0 -16 -5 -19 -10 -12 -19 31 -4
56 19 13 13 19 21 12 17 -6 -3 -14 -2 -18 4 -6 10 14 15 44 11 7 -2 10 2 7 8
-4 5 -2 13 4 16 6 4 9 1 8 -6 -2 -6 3 -14 11 -17 10 -3 12 0 7 13 -5 15 -4 16
9 5 12 -10 15 -10 15 3 0 10 6 13 20 10 14 -4 20 0 20 11 0 10 4 15 9 11 5 -3
13 0 17 6 5 8 9 7 15 -2 5 -9 10 -5 14 14 4 15 11 27 16 27 20 0 24 -3 21 -14
-2 -6 9 1 25 17 16 15 33 24 38 20 4 -5 5 -2 1 5 -4 6 -2 12 4 12 6 0 8 5 4
12 -4 7 -3 8 4 4 7 -4 12 -2 12 5 0 7 3 9 6 6 4 -4 1 -14 -7 -24 -13 -15 -12
-16 6 -9 11 5 26 9 33 9 7 0 11 6 8 14 -3 7 1 13 9 13 8 0 14 4 13 9 -2 5 2 9
7 9 6 0 9 -3 8 -7 -1 -4 7 -7 18 -7 10 0 19 4 19 8 0 4 9 8 19 8 14 0 19 6 16
18 -2 12 3 18 15 18 15 0 16 -3 8 -13 -8 -10 -7 -12 6 -7 11 4 14 13 10 31 -5
19 -3 24 7 21 8 -3 20 2 27 11 11 15 12 15 6 0 -3 -10 1 -19 10 -22 15 -6 20
5 19 41 -1 8 3 9 11 4 6 -5 19 -8 29 -7 9 2 15 0 12 -5 -3 -4 2 -11 11 -14 9
-3 12 -2 8 5 -3 6 3 19 14 29 17 16 21 17 26 5 6 -17 26 -20 26 -4 0 5 -4 8
-8 5 -4 -2 -8 4 -8 15 0 12 4 15 10 9 12 -12 29 -13 22 -1 -3 4 6 6 20 3 17
-3 24 0 22 8 -2 7 3 15 10 17 7 3 11 0 10 -5 -2 -6 2 -9 7 -8 6 0 9 7 9 13 -1
7 3 10 8 7 5 -3 24 -7 41 -9 18 -2 24 -1 15 1 -24 7 -23 21 2 34 12 6 20 7 20
1 0 -5 -8 -12 -17 -15 -10 -2 -7 -4 7 -3 14 2 24 8 23 14 -2 8 4 10 14 6 12
-5 14 -3 8 7 -6 10 -4 12 9 7 11 -5 15 -3 10 5 -5 8 -2 9 10 5 10 -4 15 -3 11
3 -3 6 -1 10 5 10 6 0 9 4 6 9 -3 4 7 6 22 3 23 -5 24 -6 7 -11 -11 -3 -21
-14 -21 -23 -2 -16 1 -16 27 3 16 11 33 17 39 14 5 -3 10 0 10 8 0 18 41 30
54 17 6 -6 15 -10 21 -10 5 0 3 5 -5 10 -11 7 -11 10 -2 10 7 0 11 4 8 9 -3 4
4 19 16 32 14 17 19 19 15 7 -9 -24 -15 -45 -10 -35 3 4 11 7 19 7 10 0 12 5
8 12 -6 10 -4 10 8 0 13 -10 17 -10 22 3 3 8 10 15 16 15 6 0 8 -4 5 -10 -3
-5 0 -10 8 -10 19 0 29 24 15 38 -6 6 -6 12 3 17 8 5 10 4 5 -3 -4 -7 -1 -12
8 -12 9 0 16 6 16 13 0 8 4 7 11 -3 9 -12 10 -11 6 8 -3 12 -2 22 1 23 41 5
59 3 59 -7 0 -9 -7 -10 -24 -3 -21 8 -22 7 -14 -10 6 -10 7 -22 3 -26 -4 -5
-1 -5 6 -1 7 4 10 12 7 17 -8 12 2 12 25 -1 17 -9 19 -7 15 20 -2 19 1 29 8
27 7 -1 11 4 9 11 -1 8 2 11 8 7 6 -3 8 -11 5 -16 -4 -5 -1 -9 4 -9 6 0 11 8
11 18 1 16 1 16 14 0 15 -21 40 -24 33 -5 -3 8 -1 20 4 28 7 11 9 10 10 -6 1
-11 1 -24 -1 -30 -1 -5 4 -5 10 2 7 6 13 25 13 41 1 17 5 28 10 25 4 -2 5 -8
2 -13 -3 -5 -1 -11 5 -15 6 -3 11 4 11 17 1 17 3 18 6 6 2 -10 8 -18 13 -18 5
0 6 7 3 17 -4 11 -3 14 5 9 7 -4 12 -1 12 8 0 9 5 16 11 16 6 0 9 -7 6 -15 -4
-8 -2 -17 4 -20 5 -4 8 -1 7 7 -2 7 5 12 15 11 15 -1 18 4 14 23 -3 18 -1 22
7 15 8 -7 22 -5 40 4 15 8 32 13 37 10 4 -3 6 4 4 16 -4 18 -2 19 11 8 12 -10
15 -10 12 2 -2 8 4 13 15 13 9 -1 17 2 17 7 0 5 -7 9 -17 9 -20 0 -11 11 12
14 9 1 20 8 24 15 6 10 10 9 14 -3 4 -9 12 -16 18 -16 8 0 8 4 -1 15 -10 13
-9 15 9 15 33 0 36 -1 33 -13 -2 -6 6 -3 17 7 11 10 18 23 15 27 -3 5 3 12 13
16 10 3 30 19 46 35 15 15 27 24 27 20 0 -4 5 0 10 8 8 13 10 12 10 -2 0 -10
-5 -18 -12 -18 -6 0 -8 -3 -5 -6 4 -4 13 -1 22 6 10 8 15 9 15 1 0 -6 5 -11
11 -11 5 0 7 5 3 12 -5 7 -2 9 8 5 12 -4 14 -1 11 14 -5 17 -3 18 21 9 19 -7
32 -6 46 2 23 15 34 38 18 38 -6 0 -9 2 -6 5 3 3 13 3 22 -1 13 -5 14 -9 4
-23 -11 -15 -10 -15 6 0 9 9 18 25 19 37 1 15 5 18 13 11 8 -7 14 -6 17 1 3 6
4 5 2 -2 -1 -7 -8 -12 -14 -10 -6 1 -11 -6 -11 -15 0 -13 3 -14 12 -5 7 7 20
12 30 12 10 0 18 5 18 11 0 5 -4 8 -8 5 -5 -3 -9 1 -9 9 0 19 2 19 21 -1 15
-14 16 -14 16 4 0 11 8 26 18 33 14 11 15 11 5 -1 -18 -19 -16 -31 2 -24 8 4
21 1 29 -5 13 -11 26 -5 26 11 0 5 -7 8 -16 6 -10 -2 -18 3 -20 10 -1 7 0 8 2
3 3 -5 13 -7 23 -4 10 3 22 0 25 -6 4 -6 12 -11 18 -11 7 0 7 4 -1 14 -9 10
-8 16 4 26 8 7 12 17 8 23 -4 6 -1 7 6 3 7 -5 10 -14 7 -22 -7 -18 23 -18 48
1 10 8 23 12 27 9 4 -2 13 4 18 15 6 10 18 21 26 25 9 3 13 2 10 -4 -3 -6 -1
-10 4 -10 6 0 11 5 11 12 0 6 3 8 7 5 3 -4 12 1 20 11 12 16 13 16 7 -3 -5
-19 -5 -19 6 -1 10 15 9 20 -1 27 -11 7 -11 9 -1 9 7 0 15 -7 19 -16 5 -13 7
-13 14 -2 7 10 9 11 9 0 0 -7 5 -10 10 -7 6 3 10 1 10 -6 0 -7 3 -10 6 -7 3 4
1 15 -5 27 -8 14 -8 22 1 27 6 4 8 3 5 -3 -4 -6 0 -13 8 -16 9 -4 12 -1 8 9
-5 13 7 18 35 15 6 -1 12 5 12 14 0 8 5 15 10 15 6 0 10 -6 10 -12 0 -9 4 -8
10 2 8 13 10 12 10 -2 0 -10 -8 -18 -17 -19 -12 0 -13 -2 -5 -6 17 -7 44 17
38 33 -3 7 -1 16 4 19 6 4 10 -2 11 -12 0 -16 1 -16 9 2 6 13 9 15 9 5 1 -13
3 -13 10 0 6 8 7 19 3 25 -3 5 2 4 11 -4 9 -7 17 -10 17 -6 0 4 8 1 17 -6 15
-12 15 -10 -1 16 l-19 30 28 -19 c15 -10 24 -13 21 -7 -4 6 -1 11 7 11 8 0 21
8 28 17 12 15 12 16 -6 10 -16 -6 -15 -3 5 12 18 14 29 17 42 10 10 -5 19 -7
19 -4 1 3 3 10 4 15 1 6 3 14 4 18 1 10 31 9 49 -1 8 -6 10 1 7 25 -3 18 -3
27 1 21 6 -14 35 -18 33 -5 -3 19 2 23 16 12 13 -10 15 -9 15 9 0 13 10 26 25
33 13 6 22 15 18 20 -3 6 6 3 19 -6 22 -14 27 -15 37 -2 7 8 10 20 6 27 -5 8
0 9 16 4 24 -7 24 -7 4 10 -11 9 -15 14 -8 11 6 -4 18 1 26 9 12 12 22 13 42
5 16 -6 23 -14 19 -22 -4 -7 -3 -8 4 -4 7 4 9 18 6 31 -4 18 -2 23 10 21 8 -1
19 -5 22 -9 12 -12 24 -8 18 7 -8 21 12 28 30 10 15 -14 17 -13 22 14 5 22 10
29 22 25 10 -4 13 -2 8 5 -4 7 -2 12 3 12 18 0 13 -28 -6 -39 -16 -9 -16 -10
5 -11 13 0 22 6 22 15 0 8 5 15 11 15 6 0 9 9 6 20 -3 11 0 23 5 27 6 3 8 1 5
-4 -4 -6 0 -13 8 -17 9 -3 12 -12 8 -23 -6 -17 -5 -17 15 1 12 10 19 23 16 27
-8 14 -16 10 -8 -3 4 -7 3 -9 -1 -5 -15 13 -14 34 1 34 8 0 14 -5 14 -11 0 -6
4 -4 9 4 6 8 8 17 6 20 -2 3 21 6 51 6 30 0 54 -4 54 -8 0 -5 6 -3 14 4 8 7
12 16 10 20 -2 4 0 9 6 13 5 3 10 1 10 -5 0 -6 5 -8 10 -5 8 5 8 11 1 19 -9
10 0 12 39 11 27 -1 47 2 44 7 -3 4 -10 6 -15 3 -5 -4 -9 -1 -9 5 0 6 -5 8
-12 4 -6 -4 -8 -3 -4 4 3 6 15 9 26 7 11 -2 19 -1 19 3 -3 18 3 20 31 12 19
-6 32 -5 36 2 4 7 2 8 -4 4 -20 -12 -13 13 8 34 15 15 30 19 55 17 19 -3 35 0
35 4 0 5 -5 9 -11 9 -5 0 -7 5 -4 10 4 6 13 7 22 2 10 -6 23 -2 40 14 14 13
30 21 36 17 5 -3 7 -1 4 4 -4 6 -1 23 7 38 9 17 16 22 19 13 4 -10 6 -10 6 1
1 11 4 11 18 0 9 -8 14 -9 10 -2 -4 7 1 14 12 18 13 4 18 11 14 22 -4 10 -2
14 4 10 17 -11 60 16 57 36 -1 9 4 17 12 17 8 0 14 5 14 12 0 6 3 8 7 5 3 -4
12 -2 19 4 10 8 16 5 26 -10 7 -12 17 -21 22 -21 5 0 6 3 3 7 -4 3 -3 11 3 17
5 7 5 17 -2 26 -8 12 -9 12 -4 -3 4 -11 2 -16 -5 -12 -14 9 -6 30 12 30 8 1
13 6 11 13 -1 7 2 12 8 12 13 0 13 -13 -1 -27 -9 -9 -6 -10 12 -6 13 3 29 12
36 20 10 12 13 12 22 -4 8 -15 10 -11 7 19 -2 30 0 35 11 27 7 -6 10 -16 6
-22 -3 -6 -1 -7 6 -3 6 4 8 12 5 18 -4 7 8 9 35 6 43 -4 57 7 19 15 -23 4 -23
4 -1 6 12 0 24 9 26 18 4 16 5 16 6 -1 1 -18 2 -18 21 -1 11 10 20 13 20 7 0
-7 4 -12 9 -12 5 0 8 12 6 27 -3 25 -2 26 11 8 15 -20 41 -28 49 -15 3 5 0 12
-6 16 -6 3 -15 0 -20 -7 -6 -10 -8 -8 -7 7 2 16 7 20 22 16 12 -3 17 -1 12 6
-3 6 -2 13 4 17 5 3 10 1 10 -5 0 -6 5 -8 10 -5 6 4 8 11 5 16 -11 16 7 9 21
-8 12 -17 13 -16 9 4 -2 13 0 25 6 28 5 4 9 2 9 -3 0 -5 10 -12 23 -15 22 -6
22 -6 2 10 -19 15 -19 15 7 9 33 -7 69 18 61 43 -4 11 -1 10 10 -4 13 -16 17
-17 18 -5 1 8 1 18 0 22 0 4 6 5 15 1 10 -4 17 2 21 16 3 11 12 21 19 21 8 0
14 4 14 9 0 5 9 11 21 14 14 4 18 10 13 19 -6 11 -5 11 8 0 14 -11 16 -10 14
5 -2 10 6 26 17 35 21 19 28 21 62 19 11 0 15 2 9 5 -7 3 -10 14 -7 25 5 18 6
18 18 3 13 -19 35 -11 35 13 0 9 6 13 15 9 9 -3 15 -1 14 7 -4 32 1 38 18 22
16 -16 17 -16 25 4 9 26 25 27 32 4 3 -10 4 -3 2 15 -2 27 0 31 15 27 14 -5
20 1 25 20 5 20 11 25 25 22 12 -3 19 0 19 9 0 11 5 11 26 2 22 -10 28 -10 40
6 7 11 11 23 8 27 -3 5 0 9 5 9 6 0 11 -4 11 -10 0 -5 7 -7 16 -3 13 5 13 7 2
14 -7 5 -11 9 -8 10 20 3 37 8 53 14 12 5 17 2 17 -10 0 -9 -4 -14 -8 -11 -4
2 -14 0 -22 -5 -11 -7 -9 -8 8 -6 13 2 28 10 33 18 5 8 9 10 9 5 0 -5 14 9 31
30 17 22 32 40 34 42 1 1 0 -9 -3 -24 -3 -19 -1 -25 7 -20 6 4 9 12 6 17 -4 5
-1 9 4 9 6 0 11 7 11 16 0 8 5 12 10 9 6 -4 8 -10 5 -15 -3 -4 1 -10 9 -13 10
-4 12 0 9 14 -6 20 24 52 39 43 4 -2 10 1 14 7 4 8 9 7 15 -2 6 -10 9 -8 9 8
0 12 -6 23 -12 26 -7 2 -2 5 12 5 42 2 60 5 55 10 -3 3 5 10 18 16 12 6 23 21
25 33 2 13 14 25 33 32 16 5 29 15 29 20 0 6 5 11 11 11 5 0 7 -6 4 -12 -4 -7
0 -5 8 4 8 10 18 14 22 10 5 -4 5 -2 2 5 -4 6 -1 18 7 26 8 8 14 16 13 18 -1
3 3 -1 9 -8 8 -9 13 -10 22 -1 15 15 15 28 1 28 -5 0 -7 -5 -3 -12 5 -7 3 -8
-5 -4 -15 9 14 46 36 46 7 0 13 6 13 13 0 8 3 8 9 -2 8 -12 12 -12 25 -2 9 7
13 17 10 22 -3 5 0 9 7 9 8 0 8 5 -2 18 -11 14 -11 15 1 5 9 -8 19 -9 31 -3
11 7 20 7 24 0 6 -10 4 -11 -25 -14 -8 0 -16 -10 -18 -21 -3 -20 -3 -20 9 0
12 19 12 19 20 0 7 -18 8 -18 8 -2 1 11 5 15 13 11 8 -5 9 0 5 15 -4 15 1 29
14 42 10 10 19 22 20 27 2 15 6 11 6 -5 0 -10 -7 -24 -16 -31 -14 -11 -13 -11
7 -2 12 6 22 17 22 25 0 8 5 15 11 15 5 0 8 4 5 8 -2 4 10 9 29 10 18 2 36 -2
40 -8 3 -5 12 -10 18 -10 8 0 9 2 1 8 -6 4 -14 20 -18 37 -7 29 -7 29 13 10
14 -12 18 -21 10 -25 -7 -5 -5 -9 6 -13 9 -4 14 -3 10 2 -3 5 1 12 7 15 10 3
8 9 -5 19 -17 14 -17 15 0 22 10 5 21 7 26 7 4 -1 7 5 7 14 0 9 5 12 12 8 6
-4 17 1 25 11 11 16 15 17 26 5 8 -9 8 -11 0 -6 -6 3 -15 1 -18 -5 -5 -7 0
-10 11 -7 11 2 18 11 18 20 -1 10 5 14 17 11 13 -4 22 4 33 32 17 40 37 43 43
5 2 -13 6 -26 8 -29 5 -4 9 35 6 53 -1 5 4 4 12 -2 11 -10 20 -7 41 13 15 14
32 25 39 25 7 0 3 7 -7 15 -20 15 -20 15 0 16 10 1 27 1 36 0 10 -1 18 4 18
13 0 8 5 18 12 22 6 4 8 3 4 -4 -3 -6 1 -9 11 -8 20 3 30 26 12 26 -8 0 -3 7
9 16 12 8 20 18 18 22 -2 4 8 16 23 26 l26 20 -20 -23 -20 -23 27 13 c22 10
25 15 17 30 -7 14 -6 19 3 20 7 1 19 2 27 3 8 0 16 7 19 15 3 10 0 11 -9 5
-11 -6 -11 -4 1 10 13 17 14 17 21 -1 7 -16 8 -16 15 4 3 13 10 20 15 17 5 -3
9 6 9 19 0 19 5 24 23 22 12 -2 28 4 35 11 11 13 9 14 -14 10 -14 -3 -23 -2
-19 2 3 4 10 7 13 7 4 0 13 4 21 9 8 5 16 4 22 -5 7 -12 9 -11 9 1 0 13 1 13
11 0 8 -12 9 -10 4 8 -4 15 -2 22 7 22 10 0 9 3 -2 9 -8 6 -19 7 -25 4 -5 -4
-7 -2 -2 2 9 10 48 15 42 5 -2 -4 2 -16 10 -26 13 -18 14 -18 8 4 -4 16 -1 22
10 22 8 0 17 -4 19 -9 2 -5 12 -3 23 6 l20 15 -20 -6 c-16 -5 -20 -1 -20 18 0
19 4 22 15 16 10 -6 21 -3 32 7 11 10 18 12 18 5 0 -7 -4 -12 -10 -12 -5 0
-10 -5 -10 -11 0 -8 4 -8 14 0 11 9 15 9 20 -1 3 -7 3 -3 1 9 -3 12 -1 24 5
28 6 3 8 11 4 16 -4 6 -11 6 -20 -2 -9 -7 -14 -8 -14 -1 0 18 18 24 40 12 28
-15 58 7 53 39 -3 23 -3 23 22 7 23 -15 24 -15 18 1 -6 16 -3 15 17 -2 13 -11
20 -14 16 -7 -4 7 -2 20 5 28 7 9 8 14 2 12 -6 -2 -10 1 -9 7 1 12 25 13 51 2
18 -7 17 -6 -2 12 -27 23 -28 28 -8 28 8 0 12 -4 10 -8 -3 -4 2 -10 11 -13 20
-8 24 -8 23 2 -2 16 14 51 22 47 4 -3 6 -12 2 -20 -7 -20 11 -19 28 2 8 9 9
14 3 10 -7 -4 -14 -1 -17 6 -6 15 54 17 66 2 5 -6 7 -4 4 5 -2 8 -10 14 -16
12 -6 -1 -11 5 -11 13 0 8 9 15 20 15 11 0 20 6 20 14 0 21 30 41 59 38 24 -2
25 -2 8 12 -16 12 -16 14 -2 20 9 3 13 2 10 -4 -3 -6 1 -10 11 -10 25 0 67 50
71 84 1 16 5 32 8 34 5 5 9 -25 5 -43 -1 -5 9 1 22 15 13 14 19 27 14 29 -4 2
-13 -3 -18 -10 -8 -11 -8 -10 -4 4 3 10 6 24 6 30 0 7 4 6 10 -3 8 -12 11 -11
16 8 4 13 12 21 18 19 6 -2 20 -1 30 3 19 6 19 7 -2 12 -14 4 -20 2 -15 -4 4
-7 1 -8 -6 -4 -16 10 -5 21 22 21 11 0 22 6 25 14 3 10 0 12 -12 8 -11 -4 -15
-3 -10 4 3 6 15 9 25 6 21 -6 44 25 36 48 -4 9 1 11 14 8 10 -3 16 -10 13 -17
-3 -6 0 -4 8 4 7 8 19 16 27 18 16 3 46 32 34 32 -5 0 -14 -5 -21 -12 -6 -6
-22 -13 -34 -14 -13 -2 -17 0 -10 2 6 3 9 11 5 17 -4 6 0 8 10 4 11 -4 14 -2
11 7 -3 8 0 17 7 22 8 4 10 3 5 -5 -5 -8 2 -11 22 -9 23 2 29 6 27 19 -3 13 1
16 13 12 15 -6 15 -4 4 10 -12 14 -11 16 7 12 14 -2 18 1 15 10 -6 15 24 14
48 -1 7 -4 8 -3 4 4 -4 7 -2 12 3 12 6 0 11 9 11 20 0 14 7 20 23 21 20 0 20
1 3 8 -14 5 -16 10 -8 15 7 4 12 4 12 -1 0 -4 8 4 17 17 10 14 16 30 15 35 -2
6 2 4 9 -2 7 -7 23 -13 36 -13 17 0 23 6 24 23 0 21 1 21 8 2 8 -19 8 -19 15
3 4 12 12 22 17 22 5 0 9 5 9 11 0 5 -4 7 -10 4 -5 -3 -7 0 -4 9 10 27 32 27
29 -1 l-2 -25 23 27 c13 15 21 31 19 36 -3 4 0 11 6 15 8 5 9 3 4 -6 -5 -9 -4
-11 3 -6 7 4 12 18 12 31 0 18 7 25 31 30 24 6 28 9 18 17 -10 7 -6 8 14 5 23
-4 25 -2 15 11 -8 10 -8 13 -2 9 7 -4 17 0 23 7 9 11 9 16 0 22 -8 4 -9 3 -5
-4 4 -7 2 -12 -3 -12 -6 0 -11 7 -11 16 0 12 7 15 25 12 13 -3 24 -2 23 1 -2
22 4 41 13 41 5 0 7 -5 4 -10 -3 -5 -1 -10 4 -10 6 0 11 6 11 13 0 8 11 20 25
27 14 8 22 16 18 19 -14 11 -38 45 -27 38 7 -4 26 7 43 25 17 17 34 28 38 25
3 -4 -2 -14 -13 -23 -18 -14 -18 -15 5 -4 18 9 22 18 19 40 -3 19 -1 27 6 22
19 -11 45 -12 51 -2 4 6 11 7 17 4 6 -4 8 -2 4 4 -3 5 -21 9 -39 7 -17 -2 -24
-1 -14 2 11 3 16 11 13 19 -6 17 17 29 35 19 8 -6 8 -9 -1 -15 -8 -5 -7 -9 4
-13 9 -4 15 -1 13 6 -1 7 8 11 23 10 22 -2 23 -2 5 6 -11 5 -24 6 -30 3 -5 -3
-4 2 4 11 15 18 26 23 16 7 -3 -6 -3 -10 2 -10 4 0 14 14 22 32 13 30 15 30
28 12 11 -14 14 -15 13 -4 -4 28 0 40 13 38 6 -2 11 4 9 12 -3 12 -1 13 9 3 7
-7 16 -13 19 -13 11 0 8 35 -4 42 -7 5 -7 8 2 8 7 0 11 4 8 8 -3 5 1 9 9 9 8
0 12 -3 10 -6 -2 -4 3 -15 11 -26 16 -21 18 -8 5 27 -8 20 -6 24 12 25 11 1
25 7 31 14 8 9 7 10 -3 4 -10 -6 -12 -4 -6 4 4 8 17 10 31 7 17 -5 24 -2 24 9
0 8 -5 15 -11 15 -5 0 -7 -5 -3 -12 5 -7 3 -8 -6 -3 -10 6 -10 11 3 20 10 7
17 17 17 22 0 11 31 24 60 26 26 2 39 20 27 35 -9 11 -13 11 -24 -4 -7 -10
-13 -13 -13 -7 0 17 25 34 36 23 6 -6 14 -2 22 10 7 12 8 20 2 20 -5 0 -10 -5
-10 -12 0 -6 -3 -8 -7 -4 -9 9 45 56 66 57 12 0 11 2 -3 8 -14 5 -16 10 -7 15
6 4 20 2 29 -5 14 -11 15 -11 5 1 -16 18 -17 34 -1 24 6 -4 8 -3 4 4 -3 6 -2
13 4 17 6 4 8 11 5 16 -4 5 4 9 16 9 18 0 19 2 9 15 -10 12 -10 15 1 15 8 0
24 11 37 24 17 19 21 32 17 53 -5 20 -4 24 3 14 8 -11 12 -10 21 7 8 15 8 22
-2 25 -7 3 -5 6 5 6 10 1 24 13 31 27 12 22 15 24 20 10 4 -10 3 -15 -3 -11
-6 3 -10 1 -10 -4 0 -6 4 -11 10 -11 13 0 32 38 25 50 -3 6 1 10 9 10 9 0 15
-5 14 -11 -2 -6 4 -14 12 -16 13 -4 13 -3 0 6 -8 6 -10 11 -5 11 6 0 1 7 -10
16 -19 15 -19 15 8 10 25 -4 27 -3 15 11 -9 12 -9 15 0 9 6 -4 12 -3 12 3 0 5
-5 11 -10 13 -6 2 -1 9 9 15 15 9 22 10 27 1 4 -6 3 -8 -4 -4 -6 3 -14 1 -17
-5 -5 -7 0 -10 11 -7 11 2 18 11 18 21 -1 9 4 17 12 17 8 0 14 7 14 16 0 8 5
12 10 9 6 -4 8 -11 5 -16 -3 -5 1 -6 9 -3 9 3 16 15 16 25 0 12 -5 16 -15 13
-8 -4 -15 -1 -15 6 0 6 4 9 9 5 5 -3 12 -1 16 5 3 5 12 10 18 10 7 0 6 -4 -3
-10 -11 -7 -11 -10 -2 -10 7 0 10 -5 6 -12 -5 -7 -3 -8 6 -3 8 5 11 22 7 49
-3 22 -3 35 0 28 3 -6 9 -9 14 -6 6 3 5 11 -2 20 -9 11 -8 14 5 14 10 0 14 -4
11 -10 -3 -5 -1 -10 5 -10 6 0 9 -4 6 -8 -3 -5 1 -9 9 -9 11 0 11 5 4 19 -10
18 -9 19 13 7 20 -11 22 -11 10 3 -7 9 -11 28 -8 43 8 41 18 45 12 5 -5 -31
-4 -33 7 -18 8 10 16 15 19 13 3 -3 4 11 3 32 -2 21 -1 30 2 20 6 -22 15 -22
46 3 15 12 28 20 31 18 2 -2 8 0 12 4 3 4 -4 5 -16 3 -13 -3 -26 -8 -29 -12
-9 -12 -31 -14 -31 -4 0 5 9 11 21 14 13 4 18 10 13 18 -5 8 -3 10 6 4 9 -6
10 -1 5 16 -4 17 -3 20 3 10 6 -8 15 -10 23 -6 9 6 11 4 6 -8 -3 -8 0 -18 8
-21 9 -3 12 0 8 10 -3 7 0 14 7 14 7 0 6 6 -4 16 -28 27 -17 28 44 6 11 -5 11
-2 -2 12 -22 21 -23 40 -4 33 17 -7 42 18 28 27 -5 3 -12 15 -15 26 -4 16 -2
18 12 10 12 -6 22 -5 30 3 10 9 11 8 5 -6 -3 -10 -13 -16 -20 -13 -8 3 -14 1
-14 -4 0 -16 28 -11 38 6 5 9 7 26 4 36 -3 11 1 23 7 27 7 4 13 17 14 29 0 11
5 19 9 16 4 -3 4 -12 1 -22 -4 -13 -2 -13 10 3 11 15 12 22 4 27 -11 7 4 13
26 9 7 -1 11 15 8 32 -1 4 4 18 9 30 11 21 11 21 -4 3 -9 -11 -16 -25 -16 -32
0 -6 -6 -14 -14 -17 -11 -4 -9 4 6 29 11 19 24 37 29 40 5 3 6 10 3 16 -5 7
-2 8 6 3 10 -6 12 -4 7 8 -4 11 -1 15 12 12 14 -3 17 1 14 16 -3 11 0 19 7 19
8 0 10 8 7 21 -3 12 0 22 9 26 8 3 11 10 7 17 -4 6 0 6 9 -2 13 -10 18 -10 24
-1 4 8 3 9 -4 5 -20 -12 -13 5 9 22 20 17 18 59 -2 46 -5 -3 -6 2 -3 9 7 18
32 16 46 -4 8 -11 9 -11 5 3 -3 9 -2 18 4 20 5 2 12 16 15 31 3 21 1 27 -8 21
-7 -4 -1 4 13 18 15 14 34 28 43 31 17 7 18 27 1 40 -11 8 39 2 54 -7 5 -4 12
-2 15 3 8 12 -20 34 -33 27 -5 -3 -8 2 -7 11 2 9 9 19 16 21 7 3 10 0 6 -7 -4
-6 -2 -11 3 -11 6 0 11 5 11 10 0 6 5 10 11 10 5 0 7 -4 4 -10 -3 -5 -1 -10 6
-10 6 0 9 8 6 19 -3 13 0 18 8 15 7 -3 16 0 21 7 5 8 3 10 -6 4 -10 -6 -11 -3
-6 16 4 13 8 29 8 35 1 6 10 9 21 6 14 -4 18 -1 15 9 -3 8 8 28 24 46 32 33
36 70 5 39 -9 -10 -17 -12 -17 -6 0 6 7 13 15 16 8 4 12 11 8 18 -4 6 1 5 10
-3 10 -8 17 -9 17 -3 0 6 10 14 22 18 l21 6 -24 19 -24 19 27 -10 c15 -5 27
-6 27 -2 -4 22 3 34 16 28 12 -4 13 -2 2 15 -10 17 -9 22 5 33 12 9 14 16 7
23 -8 8 -7 13 2 18 8 5 10 4 5 -3 -11 -19 9 -14 35 7 l24 20 -25 -5 -25 -5 25
15 c14 8 20 15 14 16 -6 0 -11 7 -11 15 0 11 4 12 14 3 7 -6 16 -8 20 -4 3 3
1 6 -6 6 -7 0 -9 5 -6 10 4 6 10 8 15 5 13 -8 18 30 7 51 -9 16 -8 17 5 7 15
-13 28 -8 28 11 0 6 -5 4 -10 -4 -8 -12 -10 -11 -10 8 0 26 34 67 48 58 6 -3
12 0 15 8 4 10 0 12 -14 9 -10 -3 -19 0 -19 6 0 6 7 11 16 11 14 0 15 2 3 17
-8 9 -9 14 -4 11 6 -4 19 0 30 8 10 8 16 14 13 14 -4 0 0 12 7 27 13 25 13 29
-3 35 -13 5 -14 7 -2 8 8 2 21 2 29 1 7 -2 10 2 7 8 -4 5 -2 12 2 15 11 6 9
36 -3 55 -6 11 -4 13 8 8 10 -4 17 -1 17 6 0 8 4 6 10 -3 6 -9 10 -10 10 -3 0
6 -4 15 -10 18 -18 11 -10 27 11 22 16 -4 18 -3 8 9 -9 11 -9 14 1 14 8 0 10
3 7 6 -4 4 -13 1 -22 -6 -21 -18 -24 -10 -8 20 7 14 13 20 13 14 0 -15 42 -12
48 4 2 6 -1 12 -8 12 -6 0 -8 -5 -4 -12 4 -6 3 -8 -4 -5 -22 14 3 57 33 56 6
0 -1 -6 -15 -14 -16 -9 -19 -14 -9 -15 8 0 20 5 27 12 16 16 15 41 0 33 -7 -4
-5 0 5 8 17 14 24 33 9 23 -5 -3 -9 1 -9 10 0 9 7 12 17 9 13 -4 19 3 25 27 4
18 7 36 6 41 0 4 3 7 9 7 13 0 13 -6 -1 -32 -8 -16 -8 -19 2 -16 14 5 24 58
11 58 -5 0 -9 6 -9 14 0 8 6 12 13 9 6 -2 15 1 19 6 3 6 10 9 14 7 4 -3 12 4
19 15 7 11 8 19 2 19 -5 0 -10 -4 -10 -8 0 -4 -9 -8 -19 -9 -23 -2 -18 23 4
25 8 1 22 3 30 4 18 2 20 18 3 18 -6 0 -3 7 8 16 10 8 12 13 4 9 -10 -4 -9 -2
2 8 10 8 14 18 10 22 -4 5 1 5 11 2 13 -5 16 -3 10 6 -11 18 -13 38 -2 31 5
-3 9 -1 9 5 0 5 9 8 19 6 14 -3 18 1 14 11 -3 8 -2 22 2 32 5 9 9 24 9 32 1 8
7 14 14 12 17 -3 15 3 -5 19 -11 10 -14 10 -9 2 4 -7 2 -13 -3 -13 -15 0 -14
15 3 29 10 9 15 8 20 -4 3 -8 11 -15 17 -15 8 0 8 4 1 13 -11 13 9 52 21 40 4
-3 5 4 2 15 -3 16 0 19 12 15 11 -5 14 -3 9 6 -5 7 -16 11 -26 8 -13 -3 -17 0
-13 9 3 8 8 12 13 9 9 -6 70 45 70 59 0 6 -5 3 -11 -7 -5 -9 -20 -17 -32 -16
-15 0 -17 2 -7 6 22 9 31 26 17 35 -8 5 -6 8 7 8 13 0 17 5 13 20 -6 22 18 29
26 8 4 -10 8 -9 16 2 6 8 10 20 10 25 0 6 -3 5 -6 -2 -3 -10 -7 -10 -18 0 -10
10 -8 15 12 28 22 15 23 18 8 26 -15 9 -15 11 1 24 13 10 16 11 10 1 -7 -11
-4 -11 12 -1 25 16 24 18 -11 21 -14 1 -23 6 -21 10 3 5 10 5 16 2 7 -5 9 2 6
18 -4 22 -1 24 23 23 17 -1 25 3 23 10 -3 7 2 18 11 25 8 7 15 18 15 24 0 6
-5 3 -11 -7 -6 -9 -15 -14 -21 -11 -7 5 -8 2 -3 -6 5 -9 4 -11 -3 -6 -17 10
-15 26 3 26 12 0 13 4 6 18 -7 14 -6 25 4 39 8 11 13 29 10 40 -2 14 2 20 13
19 9 0 18 6 18 14 1 8 3 20 4 25 1 6 2 13 1 18 0 4 5 6 11 5 8 -2 12 6 10 21
-3 17 0 21 10 15 7 -4 4 2 -6 14 -19 22 -16 37 7 37 6 0 17 24 23 53 10 43 10
52 -2 52 -10 0 -8 6 6 20 11 11 20 26 20 34 0 8 7 16 15 20 8 3 15 10 15 16 0
6 -4 9 -8 6 -5 -3 -9 1 -9 8 0 7 7 13 16 12 9 0 15 5 13 12 -1 6 5 12 14 12 8
0 12 -5 9 -10 -3 -6 -1 -10 4 -10 15 0 14 27 -1 33 -10 4 -10 6 0 6 6 1 12 6
12 12 0 6 -7 9 -15 5 -8 -3 -15 -1 -15 4 0 6 7 10 15 10 8 0 15 5 15 11 0 8 5
8 15 -1 8 -7 15 -9 15 -5 0 4 -7 13 -15 19 -22 16 -29 57 -8 49 12 -5 12 -7 1
-15 -10 -8 -10 -9 2 -5 8 2 16 9 16 15 1 7 2 19 3 28 1 11 7 13 23 8 20 -6 21
-5 10 9 -8 9 -21 13 -30 10 -10 -3 -7 3 8 16 14 11 29 21 33 21 5 0 5 5 2 11
-5 6 -12 4 -21 -8 -12 -16 -12 -14 -2 13 7 20 17 30 25 27 15 -6 17 9 3 23
-14 14 -2 44 15 38 7 -3 15 4 18 16 4 17 3 19 -8 10 -11 -9 -14 -7 -12 9 1 14
8 21 23 21 16 0 21 5 19 18 -2 9 -4 20 -4 25 -1 4 -8 7 -17 7 -8 0 -12 5 -9
11 4 6 14 8 22 5 11 -4 13 -2 9 9 -7 19 3 47 15 39 5 -3 9 0 9 6 0 6 8 10 18
8 12 -2 16 3 14 17 -7 45 -6 60 3 58 6 0 15 5 22 12 9 10 8 18 -7 35 -17 20
-19 40 -4 40 3 0 3 -4 0 -9 -3 -5 0 -11 8 -14 10 -4 12 0 8 15 -3 14 -1 19 6
14 8 -5 10 -2 6 8 -4 11 0 16 13 16 14 0 19 7 18 28 0 15 -5 33 -9 41 -7 11
-4 13 12 9 23 -6 31 7 10 15 -10 4 -10 7 0 15 7 5 10 16 6 25 -4 12 -1 17 10
17 9 0 16 8 16 18 0 10 -3 13 -8 6 -10 -15 -42 -25 -42 -14 0 10 41 35 53 32
11 -3 8 5 -9 22 -9 9 -11 16 -4 16 6 0 9 4 6 9 -4 5 3 7 15 4 19 -5 20 -4 10
16 -9 17 -9 21 1 19 7 -2 14 4 14 12 1 8 2 17 3 20 8 21 5 90 -3 90 -26 0 14
16 48 19 4 1 -2 10 -15 21 -13 10 -20 19 -15 20 5 0 3 7 -4 15 -10 12 -8 14 9
10 11 -2 23 0 26 6 4 5 -3 9 -15 9 -17 0 -19 3 -10 19 14 27 13 34 -4 28 -10
-4 -13 -1 -10 7 3 8 14 12 27 9 13 -3 18 -1 11 4 -6 4 -10 16 -8 25 1 10 -4
18 -11 18 -7 0 -15 7 -19 15 -3 8 -1 15 3 15 5 0 7 10 4 23 -4 21 -3 21 11 -3
8 -14 16 -20 16 -15 1 6 3 18 5 28 2 9 -1 15 -6 11 -5 -3 -9 0 -9 5 0 6 6 11
13 11 7 0 5 5 -5 10 -15 9 -15 51 1 48 3 -1 14 2 25 7 17 8 17 9 -3 20 l-22
11 26 14 c27 14 33 30 13 30 -9 0 -8 3 2 9 8 6 18 7 22 5 4 -3 4 5 0 18 -7 21
-8 30 -3 56 1 4 5 2 9 -5 5 -8 11 -3 19 13 6 13 7 22 2 18 -5 -3 -9 0 -9 5 0
6 -5 11 -11 11 -8 0 -8 -4 0 -14 10 -12 9 -13 -8 -9 -21 5 -18 33 4 33 7 0 18
7 25 15 9 11 9 15 1 15 -7 0 -10 4 -6 10 3 5 13 6 23 3 13 -4 13 -3 -3 10 -14
11 -16 18 -9 28 6 8 10 21 9 29 0 8 4 19 10 23 7 6 6 10 -3 14 -16 6 -6 23 14
23 9 0 12 -5 8 -12 -5 -7 -3 -8 6 -3 10 6 7 12 -10 25 -17 12 -19 19 -10 25
10 6 9 9 -1 15 -9 6 -3 14 20 28 33 20 32 32 -4 26 -17 -3 -17 0 5 16 14 11
29 20 34 20 5 0 -1 9 -14 20 l-23 20 22 0 c14 0 20 -4 15 -12 -4 -6 -3 -8 4
-5 18 12 6 42 -17 41 -14 0 -18 3 -12 9 5 5 7 17 4 26 -5 13 -3 12 9 -2 13
-18 14 -18 32 1 13 15 14 22 5 28 -7 4 -10 3 -6 -3 4 -6 0 -16 -8 -23 -11 -9
-14 -8 -12 11 1 12 10 24 20 27 12 3 16 10 12 23 -4 11 -2 19 4 19 6 0 7 8 4
17 -5 14 -8 12 -16 -10 -5 -15 -16 -27 -25 -27 -13 0 -13 2 3 13 10 8 15 19
11 25 -3 5 -1 12 6 14 6 2 12 12 14 21 2 14 -1 15 -18 6 -19 -10 -19 -10 -3
15 15 23 34 39 21 18 -3 -5 1 -9 8 -9 8 0 11 9 8 24 -3 14 0 23 9 23 8 0 5 6
-7 16 -10 8 -13 13 -6 9 6 -3 12 -2 12 2 0 5 -6 15 -12 22 -11 11 -9 12 10 6
13 -4 22 -2 22 4 0 6 -6 11 -14 11 -11 0 -15 26 -6 38 2 1 3 5 5 10 1 4 5 15
10 26 5 11 4 26 -3 37 -11 17 -10 18 14 9 l25 -10 -22 32 c-21 29 -21 31 -4
24 11 -4 16 -4 12 0 -4 4 -2 13 5 21 6 7 8 17 4 20 -4 4 -11 1 -16 -7 -6 -8
-10 -10 -11 -5 0 6 -2 18 -4 28 -2 9 1 17 7 17 6 0 7 -7 4 -16 -3 -8 -2 -12 4
-9 12 8 13 35 1 35 -5 0 -12 7 -15 16 -5 14 -4 15 9 4 12 -10 15 -10 15 3 0 8
-3 17 -7 20 -5 2 -2 2 4 1 7 -2 17 5 23 15 7 14 5 24 -8 38 -9 10 -13 13 -8 6
6 -9 4 -13 -6 -13 -7 0 -14 9 -15 20 -1 11 4 20 10 20 8 0 7 3 -2 9 -9 6 -10
11 -2 15 10 6 15 -6 12 -26 0 -5 6 -8 14 -8 19 0 19 3 -5 51 -20 39 -20 39 -1
27 11 -6 18 -15 15 -19 -2 -4 0 -10 5 -13 19 -12 3 28 -18 46 -18 14 -20 18
-7 18 9 0 19 7 22 15 4 8 11 12 18 9 6 -3 3 1 -8 10 -10 8 -15 20 -10 27 4 8
3 10 -5 5 -8 -5 -11 2 -9 26 2 33 20 62 32 51 3 -4 6 -2 6 4 0 10 -23 25 -42
27 -3 1 -10 5 -15 10 -4 5 -3 6 4 2 6 -3 18 3 26 14 7 11 18 17 23 12 5 -4 0
3 -11 16 -11 14 -14 22 -6 20 7 -2 20 8 29 22 l16 25 -23 -20 -24 -20 11 22
c8 15 9 22 1 25 -7 2 -7 12 2 31 9 20 15 24 21 15 5 -9 8 -10 8 -1 0 19 -21
27 -31 12 -6 -10 -9 -10 -9 -2 0 7 10 17 21 24 17 9 23 8 30 -2 7 -11 9 -10 9
3 0 9 -6 18 -12 21 -10 3 -10 7 -1 18 7 9 9 20 3 29 -5 8 -7 26 -4 40 4 18 3
21 -4 11 -6 -8 -12 -9 -16 -3 -3 5 2 13 11 16 9 4 20 1 24 -6 5 -8 8 -5 6 10
-1 14 -6 21 -14 18 -7 -3 -13 -3 -13 0 0 2 11 8 23 13 13 5 24 17 24 26 0 10
-6 14 -14 10 -8 -3 -17 -5 -19 -5 -3 0 -2 -5 2 -12 5 -7 3 -8 -5 -4 -10 6 -9
12 2 24 24 29 32 46 16 38 -8 -4 -6 -1 4 7 23 19 22 27 -5 22 -22 -4 -22 -4
-4 10 11 8 16 15 10 15 -5 0 -9 15 -9 34 0 24 3 31 11 25 7 -5 11 -3 11 6 0 8
-6 15 -14 15 -7 0 -13 4 -13 10 0 5 7 7 15 4 11 -5 14 -2 9 12 -6 18 -5 17 9
-1 8 -10 13 -26 10 -35 -3 -9 0 -8 7 3 8 13 9 22 2 29 -6 6 -8 17 -5 24 3 8 0
14 -6 14 -6 0 -11 8 -11 17 0 13 3 14 12 5 21 -21 29 -13 13 12 -12 18 -13 26
-4 32 8 5 9 3 4 -6 -5 -8 -4 -11 3 -6 12 7 6 59 -9 64 -5 2 -9 8 -9 13 0 6 4
7 10 4 6 -3 10 4 10 17 0 16 -3 19 -9 10 -7 -11 -9 -11 -14 1 -3 8 -3 18 1 21
11 11 11 36 0 36 -6 0 -5 6 2 15 13 16 7 30 -12 30 -6 0 -12 8 -14 18 -2 15 0
16 12 6 9 -7 14 -8 14 -1 0 6 -9 13 -19 17 -13 4 -18 12 -14 22 4 9 -1 22 -13
31 -18 14 -18 14 0 8 16 -5 17 -2 12 20 -5 20 -3 27 14 31 11 3 20 9 20 14 0
5 -6 6 -13 3 -8 -3 -20 2 -27 11 -10 12 -10 15 4 15 11 0 14 -5 10 -12 -4 -7
-3 -8 5 -4 9 6 9 11 1 22 -7 7 -10 19 -7 26 4 8 6 7 6 -4 1 -10 5 -18 11 -18
5 0 6 7 3 17 -4 9 -2 14 3 10 6 -3 11 3 11 14 2 21 -13 26 -20 7 -4 -10 -6
-10 -6 0 -1 7 -5 11 -9 8 -5 -3 -8 3 -7 12 0 9 5 17 10 17 6 0 9 -6 9 -12 -1
-7 2 -10 8 -7 5 3 7 19 4 35 -2 16 0 31 5 34 5 4 2 16 -6 29 -18 27 -8 43 12
18 8 -9 12 -11 8 -4 -4 7 1 12 12 13 10 0 13 3 6 6 -7 2 -13 11 -13 19 0 9 5
12 13 8 6 -4 2 4 -10 18 -25 27 -29 38 -12 38 5 0 7 -5 3 -12 -5 -7 -3 -8 6
-3 10 6 9 11 -6 22 -18 13 -18 14 4 19 12 4 22 10 22 15 0 5 -7 6 -15 3 -9 -4
-15 0 -15 10 0 9 5 16 10 16 6 0 10 5 10 11 0 5 -5 7 -10 4 -6 -4 -5 4 1 19 7
14 15 23 19 21 4 -2 7 2 7 10 0 22 -18 18 -24 -5 -3 -11 -9 -20 -15 -20 -5 0
-4 8 2 19 5 11 10 35 10 53 0 18 4 28 8 22 5 -8 12 -6 24 6 16 15 16 16 -12
14 -17 -1 -27 2 -24 7 3 5 9 7 13 4 11 -6 46 33 38 42 -4 3 -7 1 -7 -5 0 -6
-6 -9 -14 -6 -15 6 -16 21 -3 41 4 6 4 18 1 27 -5 14 -9 14 -23 4 -11 -9 -10
-6 3 9 10 13 22 20 26 18 5 -3 6 5 2 17 -4 16 -2 19 9 13 11 -7 12 -6 3 6 -22
28 -23 60 -4 79 18 18 18 19 -8 29 -15 5 -20 10 -11 10 9 1 20 8 23 17 9 23 8
27 -9 20 -12 -4 -13 -2 -6 12 6 11 5 24 -2 37 -10 18 -9 19 7 6 9 -8 16 -10
15 -5 -4 21 2 45 10 40 4 -3 6 7 3 22 l-6 27 -6 -24 c-3 -14 -12 -26 -20 -29
-9 -2 -11 0 -5 5 6 4 11 13 12 18 9 58 9 73 2 90 -4 11 -8 14 -8 8 -1 -7 -5
-13 -11 -13 -5 0 -6 7 -3 17 5 12 3 14 -7 8 -8 -5 -11 -4 -6 3 4 6 13 9 20 6
8 -3 17 -1 21 5 3 6 0 9 -8 5 -8 -3 -18 -1 -22 5 -3 6 0 11 7 11 8 0 14 9 14
21 0 18 -2 18 -12 5 -6 -9 -14 -13 -17 -9 -4 3 3 15 16 25 20 18 21 20 4 29
-12 7 -15 15 -8 27 9 19 4 45 -9 37 -4 -3 -7 9 -6 26 1 16 -2 33 -7 36 -6 3
-7 1 -3 -5 3 -6 2 -13 -3 -16 -11 -7 -9 13 3 33 7 11 10 11 18 0 8 -11 9 -11
5 1 -2 8 -12 14 -21 14 -9 -1 -16 2 -16 7 0 5 4 9 9 9 5 0 11 6 14 13 3 8 -1
14 -9 14 -7 0 -10 -5 -7 -10 3 -6 1 -7 -5 -3 -12 7 -5 36 13 51 24 20 35 51
22 64 -16 16 -17 69 -1 75 8 3 14 11 14 18 0 8 -3 9 -8 3 -4 -5 -13 -11 -21
-13 -12 -3 -12 0 -2 11 9 12 9 16 0 19 -8 3 -7 9 4 20 16 15 13 28 -5 28 -5 0
-7 -4 -4 -9 3 -5 -2 -15 -12 -22 -15 -12 -16 -12 -5 2 10 12 10 18 0 29 -9 10
-9 11 1 5 9 -4 15 0 19 14 3 12 10 21 16 21 6 0 2 7 -10 15 -21 14 -24 40 -8
65 3 6 1 10 -4 10 -6 0 -11 5 -11 11 0 8 4 8 15 -1 11 -9 12 -17 4 -31 -7 -14
-6 -19 4 -19 18 0 16 61 -3 78 -13 12 -13 13 3 8 9 -3 17 -2 17 1 0 4 -8 15
-17 26 -17 18 -17 20 -1 30 15 10 15 12 -4 29 -12 10 -17 18 -12 18 6 0 15 -5
21 -11 9 -9 11 -7 6 9 -3 12 -12 23 -22 25 -10 2 -3 8 19 15 28 10 30 11 8 8
-18 -2 -28 1 -28 10 0 20 21 28 31 13 6 -10 9 -8 9 9 0 19 -4 21 -24 16 -14
-3 -27 -1 -31 7 -6 8 -4 10 5 4 9 -6 12 -4 8 7 -4 8 0 15 8 15 7 0 11 -4 8 -9
-3 -4 -3 -8 0 -8 2 0 12 14 20 32 15 30 15 31 -2 15 -24 -22 -38 -22 -21 0 13
15 12 15 -11 4 -23 -11 -24 -11 -6 3 10 8 22 17 26 18 4 2 10 14 14 28 3 14 3
19 0 13 -3 -7 -15 -13 -27 -13 -20 0 -20 0 -1 14 16 13 17 18 7 35 -16 25 -17
42 -2 21 9 -12 10 -11 6 8 -3 12 -1 22 4 22 5 0 2 12 -8 26 -17 26 -17 27 7
20 19 -6 21 -5 10 3 -8 6 -10 11 -5 11 6 0 2 5 -7 11 -10 5 -18 15 -18 20 0 6
4 8 8 5 5 -3 9 10 9 29 0 25 -5 35 -16 35 -14 0 -14 2 -1 10 13 8 13 10 -2 10
-14 0 -15 5 -8 31 7 23 6 30 -3 26 -7 -3 -13 3 -14 12 -1 9 -4 26 -8 39 -6 17
-3 22 11 22 16 0 17 2 4 10 -12 8 -12 10 -1 10 9 0 6 7 -9 20 -15 13 -18 20
-9 20 11 0 11 2 -1 10 -8 5 -10 10 -5 10 6 0 4 4 -4 9 -12 8 -12 12 -2 25 8 9
9 16 3 16 -12 0 -10 32 3 43 6 4 0 10 -13 13 -18 5 -20 9 -10 15 10 7 10 9 -2
9 -13 0 -13 1 0 10 13 8 12 10 -2 10 -10 0 -18 4 -18 10 0 5 6 7 13 4 8 -3 14
2 14 10 0 8 -5 14 -10 13 -5 -1 -12 4 -15 12 -2 8 0 11 6 7 5 -3 12 1 15 9 4
8 -1 16 -11 19 -21 7 -27 46 -9 59 7 5 2 7 -13 3 l-25 -5 25 20 c14 12 19 18
13 14 -16 -8 -17 7 -3 21 7 7 3 19 -14 37 -13 14 -21 29 -18 32 4 3 0 10 -7
14 -10 7 -9 10 8 16 23 7 27 20 11 30 -6 4 -7 12 -3 18 4 8 1 7 -9 -1 -14 -11
-18 -10 -27 6 -13 24 -9 51 10 64 11 7 8 8 -9 5 -13 -3 -21 -3 -18 0 3 4 1 12
-6 20 -9 11 -6 12 16 3 38 -14 38 -13 11 16 -26 28 -35 55 -12 36 9 -8 12 -4
13 16 1 15 -1 21 -3 15 -3 -7 -9 -13 -14 -13 -6 0 -7 5 -4 10 3 6 0 10 -7 10
-9 0 -9 3 2 10 14 9 7 14 -13 11 -5 -1 -6 3 -2 9 3 6 11 8 16 5 5 -3 6 1 3 9
-3 9 -10 13 -15 10 -13 -7 -11 3 3 26 10 16 10 22 -1 32 -8 7 -11 8 -8 2 4 -7
-1 -18 -11 -25 -15 -13 -16 -12 -3 4 7 9 10 17 6 17 -4 0 -2 7 5 15 10 12 10
15 -4 15 -9 0 -16 5 -16 11 0 6 7 8 17 5 15 -6 15 -5 1 11 -21 26 -31 44 -21
42 18 -3 33 2 33 10 0 6 -9 8 -20 6 -19 -4 -19 -3 -4 21 10 15 12 24 5 24 -6
0 -11 5 -11 11 0 5 6 7 13 4 6 -4 4 0 -5 8 -10 8 -14 18 -10 22 4 5 -1 5 -11
2 -15 -6 -16 -4 -7 13 6 11 16 20 23 20 8 0 7 4 -3 9 -8 6 -17 8 -21 5 -4 -2
-10 3 -13 12 -9 23 -8 26 7 19 6 -4 3 1 -7 9 -17 14 -17 16 -4 16 9 0 20 5 24
12 4 7 3 8 -4 4 -7 -4 -12 -3 -12 3 0 5 -8 12 -18 15 -10 3 -18 15 -18 26 0
26 12 25 27 -2 8 -14 14 -18 16 -11 3 7 -3 20 -11 29 -9 8 -13 21 -9 27 4 7 0
8 -12 3 -15 -5 -16 -4 -6 8 9 11 9 15 -1 19 -9 3 -7 9 7 21 20 17 20 17 -2 6
-16 -7 -23 -7 -23 0 0 5 5 10 11 10 5 0 3 10 -5 22 -19 26 -21 47 -4 30 7 -7
16 -12 21 -12 5 0 1 7 -8 16 -12 12 -13 20 -5 29 9 11 7 12 -8 8 -21 -5 -44
18 -24 25 7 2 9 9 5 15 -12 19 -14 49 -3 42 6 -3 7 1 4 10 -5 12 -9 13 -20 4
-11 -9 -14 -8 -15 5 -1 9 -3 21 -4 26 -1 6 -3 19 -4 31 0 11 -5 17 -11 14 -6
-4 -7 1 -3 11 5 13 3 15 -8 9 -12 -7 -11 -6 1 9 13 17 15 17 23 -8 5 -14 13
-26 19 -26 6 0 6 6 -2 15 -6 8 -9 19 -5 24 3 6 -6 13 -20 17 -19 5 -23 10 -16
17 15 15 14 27 -3 27 -9 0 -12 7 -9 19 3 10 -1 22 -8 26 -8 6 -10 4 -4 -5 5
-9 4 -11 -3 -6 -21 13 -14 35 10 28 l21 -5 -21 21 c-16 16 -20 31 -18 71 2 28
-1 48 -6 45 -7 -5 -12 21 -11 73 0 12 -4 20 -8 17 -5 -3 -9 3 -9 13 0 11 -6
25 -12 32 -10 10 -10 12 -1 7 9 -5 8 4 -2 29 -9 19 -12 35 -8 35 5 0 1 5 -7
10 -10 6 -11 10 -2 10 6 0 12 5 12 11 0 6 -6 9 -13 6 -10 -4 -13 2 -10 21 3
19 2 23 -5 14 -13 -19 -20 2 -17 51 2 20 -2 40 -7 43 -6 4 -5 10 3 15 11 7 11
9 1 9 -7 0 -11 4 -7 9 3 5 0 13 -6 17 -9 5 -10 0 -7 -14 4 -15 2 -22 -7 -22
-10 0 -11 8 -4 33 12 45 8 87 -9 87 -9 0 -11 7 -6 22 6 20 5 21 -10 9 -23 -19
-28 -10 -12 21 8 15 10 31 5 39 -4 8 -3 19 3 26 7 9 7 13 -1 13 -6 0 -11 5
-11 11 0 5 4 7 10 4 6 -3 7 1 4 9 -3 9 -11 13 -17 9 -7 -4 -8 0 -4 11 5 13 3
17 -6 13 -7 -3 -13 3 -14 13 -1 11 4 21 10 23 7 2 2 2 -11 0 -20 -3 -22 0 -16
22 4 18 2 25 -9 25 -8 0 -17 8 -19 18 -4 13 1 18 19 20 18 1 24 -3 22 -16 -3
-35 1 -54 13 -50 6 2 12 16 12 30 1 15 -3 24 -8 21 -5 -4 -6 1 -2 13 4 10 4
15 0 11 -4 -4 -16 0 -26 10 -12 10 -18 12 -18 4 0 -7 -5 -9 -11 -5 -15 9 2 25
30 27 25 2 25 1 4 18 -11 10 -14 10 -9 2 13 -22 -15 -14 -33 9 -14 16 -20 18
-26 8 -6 -9 -4 -11 6 -5 11 6 11 5 2 -5 -6 -7 -17 -9 -23 -5 -9 6 -9 9 1 16
10 6 9 13 -6 30 l-20 23 26 -16 c20 -13 26 -13 26 -3 0 8 -5 13 -11 12 -6 -1
-10 3 -9 10 2 7 -3 10 -11 7 -7 -3 -16 2 -20 11 -3 9 -2 13 3 10 5 -3 12 -1
16 5 3 5 3 10 -2 10 -4 0 -17 13 -28 28 -18 25 -18 26 0 12 17 -14 18 -14 7 7
-7 12 -17 24 -24 26 -8 3 -5 6 6 6 18 1 18 2 1 21 -15 16 -15 22 -5 35 10 12
10 18 0 30 -7 8 -9 15 -4 15 4 0 -1 7 -12 16 -19 15 -19 16 1 10 19 -6 19 -5
3 7 -10 8 -15 17 -11 20 3 4 -2 7 -12 7 -15 0 -16 2 -4 16 7 9 14 23 15 33 2
12 -2 11 -16 -6 -17 -22 -18 -22 -23 -3 -3 11 -2 19 2 18 17 -2 21 3 9 16 -7
8 -17 11 -22 8 -5 -3 -6 0 -2 7 4 6 12 9 17 6 5 -4 9 -1 9 4 0 6 -4 11 -10 11
-5 0 -10 7 -10 15 0 8 -6 15 -12 15 -9 0 -9 3 -3 8 13 9 13 21 -3 50 -9 16
-10 27 -2 42 7 14 7 20 0 20 -5 0 -9 3 -8 8 3 16 -15 41 -26 35 -6 -4 -4 2 4
12 11 14 12 19 3 22 -7 3 -13 14 -13 24 0 11 -4 17 -10 14 -14 -9 -13 38 2 53
9 9 7 13 -5 18 -9 3 -15 9 -12 13 2 4 -2 8 -9 8 -19 0 -8 -25 11 -29 14 -3 13
-5 -3 -18 -10 -8 -16 -11 -12 -6 4 4 -2 18 -13 29 -19 20 -19 22 -3 34 11 8
13 13 5 13 -7 0 -9 5 -5 12 4 6 3 8 -3 5 -6 -4 -13 0 -16 7 -4 11 0 14 16 11
21 -4 21 -4 3 10 -11 8 -24 15 -29 15 -5 0 -7 6 -4 13 2 6 10 11 17 9 10 -2
11 0 2 11 -7 8 -8 18 -4 22 4 5 1 5 -5 1 -9 -5 -13 1 -13 18 0 14 -5 28 -10
31 -6 3 -8 17 -6 30 3 14 0 28 -6 31 -7 4 -8 2 -4 -4 4 -7 1 -12 -8 -12 -20 0
-20 5 0 25 9 9 13 19 9 23 -3 4 -13 -1 -20 -12 -13 -17 -14 -16 -11 8 1 14 6
29 11 34 4 4 5 1 0 -7 -5 -9 -4 -12 3 -7 6 4 9 13 5 22 -4 11 -9 12 -19 4 -10
-9 -12 -5 -11 22 1 24 -2 32 -12 30 -12 -3 -12 -1 0 14 9 12 9 15 2 10 -8 -4
-13 -1 -13 8 0 9 -5 16 -12 16 -6 0 -3 7 8 15 15 11 16 15 4 15 -10 1 -9 4 4
9 18 7 18 8 2 14 -12 5 -20 0 -27 -16 l-10 -22 5 23 c3 17 1 22 -10 18 -8 -3
-14 -1 -14 4 0 6 3 10 8 10 4 0 7 16 8 36 1 34 -1 35 -13 18 -13 -17 -14 -16
-7 11 9 40 13 47 26 39 7 -4 8 -2 4 5 -6 9 -14 8 -33 -4 -24 -16 -24 -16 -13
6 11 20 10 21 -10 16 -25 -6 -20 1 11 17 20 10 29 29 12 24 -5 -2 -7 -6 -6
-10 2 -4 -6 -6 -17 -5 -11 1 -20 7 -20 15 0 7 5 10 10 7 18 -11 10 14 -11 34
-15 14 -17 21 -8 26 8 6 10 4 4 -6 -5 -8 -4 -10 0 -6 16 14 13 37 -6 47 -11 6
-19 21 -19 36 0 14 4 22 10 19 6 -3 10 0 10 8 0 8 -9 17 -20 20 -18 4 -20 2
-14 -16 4 -16 3 -19 -5 -12 -6 6 -12 20 -14 32 -1 11 -7 27 -13 35 -11 15 -12
28 -2 44 5 8 5 29 -1 52 -1 1 -10 -2 -21 -8 -11 -6 -20 -7 -19 -3 5 30 -2 63
-13 57 -7 -4 -8 -3 -4 5 6 8 12 9 20 2 9 -8 13 -7 13 4 0 8 -2 13 -5 10 -10
-10 -41 16 -39 35 1 11 4 20 7 20 4 0 7 7 7 15 0 13 -4 12 -21 -2 -12 -10 -18
-14 -14 -9 4 5 3 17 -2 27 -7 12 -6 19 3 22 9 4 9 8 -2 15 -10 8 -8 13 10 27
15 11 18 15 7 12 -10 -4 -18 -2 -18 4 0 6 -6 7 -12 3 -10 -6 -10 -5 -2 7 14
17 15 67 3 91 -5 9 -17 15 -26 14 -10 -2 -12 -1 -5 1 6 3 12 17 12 31 -1 26
-1 26 -16 7 -8 -11 -24 -21 -35 -21 -11 -1 -17 1 -13 5 3 3 11 6 16 6 6 0 13
6 16 13 2 7 -2 10 -12 6 -9 -3 -16 -3 -16 0 0 4 10 10 21 15 14 5 23 18 25 37
2 24 1 26 -7 11 -6 -9 -7 -22 -4 -27 3 -6 1 -10 -4 -10 -6 0 -11 5 -11 11 0 6
-8 1 -18 -12 -15 -17 -21 -19 -27 -9 -5 9 -4 11 3 6 7 -4 12 -1 12 9 0 9 -5
13 -10 10 -6 -3 -10 -1 -10 4 0 6 5 11 12 11 6 0 3 7 -8 15 -10 8 -14 15 -7
15 7 0 10 7 6 16 -3 9 0 20 8 24 7 5 10 12 7 16 -4 3 -14 -1 -23 -10 -22 -21
-28 -20 -16 3 6 10 7 21 4 25 -3 3 1 6 11 6 9 0 15 4 11 10 -3 5 -12 7 -20 3
-19 -7 -21 33 -2 41 8 4 7 5 -3 5 -29 -2 -38 1 -43 15 -4 11 -1 13 11 9 15 -6
15 -5 3 10 -7 9 -17 15 -21 12 -5 -3 -7 3 -6 12 2 10 -2 22 -8 26 -8 6 -7 10
1 14 7 2 13 9 13 15 0 6 -10 3 -22 -8 -12 -10 -18 -13 -14 -6 5 7 1 12 -10 12
-10 0 -14 3 -11 7 4 3 1 13 -6 21 -10 13 -9 14 2 8 9 -6 12 -5 9 5 -3 8 -13
12 -23 11 -16 -3 -17 -1 -6 12 14 16 6 40 -10 31 -5 -4 -9 -1 -9 5 0 7 -7 10
-15 6 -8 -3 -15 -1 -15 4 0 6 6 10 14 10 8 0 18 5 22 12 5 7 0 9 -14 6 -15 -4
-19 -2 -15 8 5 13 -8 19 -30 15 -4 -1 -3 8 3 19 9 17 8 20 -11 20 -15 0 -19 4
-15 16 3 8 -3 25 -14 37 -11 12 -18 27 -16 34 3 7 2 12 -2 11 -4 -1 -15 2 -25
7 -15 6 -16 10 -5 16 10 7 9 9 -5 9 -9 0 -16 6 -15 12 2 7 -4 13 -12 13 -21 0
-40 18 -28 26 5 4 3 13 -6 22 -17 17 -22 32 -7 22 5 -3 13 0 17 6 4 7 3 9 -3
6 -10 -6 -39 69 -34 88 1 6 -1 6 -5 2 -12 -12 -13 -37 -2 -37 6 0 8 -9 5 -20
-3 -11 -1 -18 4 -14 15 9 10 -3 -7 -17 -14 -11 -16 -10 -13 6 2 11 0 29 -3 40
-19 61 -20 67 -9 61 14 -9 14 9 0 35 -5 11 -14 17 -19 14 -6 -3 -7 1 -4 9 4
10 1 16 -8 16 -7 0 -19 9 -26 20 -7 12 -18 18 -24 14 -6 -4 -8 -3 -5 3 4 6 -4
23 -18 39 -18 21 -21 30 -12 37 8 5 5 7 -8 5 -13 -2 -19 2 -17 11 3 12 0 12
-11 2 -13 -10 -15 -7 -13 19 1 17 -2 34 -7 37 -6 3 -7 1 -3 -5 4 -7 2 -12 -3
-12 -6 0 -11 5 -11 11 0 6 -7 9 -15 5 -18 -6 -33 20 -30 52 1 18 -2 22 -17 19
-16 -5 -22 4 -19 25 0 4 -6 5 -14 2 -10 -4 -15 0 -15 11 0 11 -5 15 -15 11
-13 -5 -14 -2 -4 17 11 20 11 21 -5 8 -15 -13 -16 -12 -7 11 8 21 7 25 -6 24
-9 0 -18 5 -21 13 -3 8 0 11 7 7 7 -5 9 -1 5 8 -6 15 -17 20 -37 17 -4 0 -6 2
-5 6 1 5 -2 17 -8 28 -6 11 -10 32 -9 46 1 23 -2 26 -20 19 -18 -7 -21 -4 -20
19 0 18 -7 29 -23 36 -12 5 -20 15 -18 21 3 7 -3 10 -15 7 -15 -4 -19 0 -19
19 0 21 -4 24 -23 21 -18 -4 -23 0 -24 17 -2 21 -1 21 11 5 10 -14 15 -15 21
-5 5 8 4 11 -2 7 -6 -4 -14 0 -17 9 -5 13 -9 14 -21 4 -13 -11 -14 -10 -9 4 4
11 -1 19 -17 25 -13 5 -19 10 -12 10 7 1 10 8 6 17 -4 11 -8 12 -13 4 -4 -7
-13 -9 -19 -6 -6 4 -9 12 -6 17 4 5 1 9 -4 9 -6 0 -11 7 -11 16 0 10 -6 14
-15 10 -8 -3 -15 -1 -15 5 0 5 -10 14 -22 19 -15 5 -17 9 -7 9 9 1 16 8 16 16
0 10 -4 12 -10 6 -12 -12 -47 18 -47 41 0 9 5 20 10 23 7 4 -1 19 -19 37 -18
18 -27 36 -24 46 4 10 2 13 -5 8 -7 -4 -12 -2 -12 4 0 6 -5 8 -11 4 -8 -5 -8
-9 1 -14 16 -10 24 -70 10 -70 -6 0 -9 4 -5 9 3 6 -3 14 -12 20 -10 6 -12 11
-5 11 6 0 12 5 12 11 0 6 -10 8 -22 5 -13 -3 -17 -3 -11 0 7 3 13 14 13 25 0
10 6 19 13 19 8 0 7 3 -3 10 -9 6 -19 5 -28 -3 -11 -8 -13 -8 -11 4 2 7 0 24
-4 35 -6 16 -13 20 -29 16 -17 -4 -20 -2 -15 11 4 10 2 17 -3 17 -6 0 -9 5 -8
11 2 6 -4 14 -12 16 -12 4 -12 3 -1 -5 8 -6 9 -12 3 -16 -5 -3 -17 3 -27 14
-10 11 -24 20 -32 20 -16 0 -17 27 -1 32 7 3 5 7 -6 11 -10 4 -15 3 -11 -3 10
-17 -4 -11 -25 10 -12 12 -18 25 -15 30 4 6 -1 10 -9 10 -9 0 -16 5 -16 11 0
5 -4 8 -9 5 -4 -3 -16 1 -26 8 -14 10 -15 15 -5 21 9 5 11 4 6 -3 -4 -7 -3
-12 2 -12 6 0 9 11 8 25 0 15 -6 23 -13 21 -7 -3 -15 -1 -18 4 -4 6 -1 10 4
10 6 0 11 4 11 8 0 5 -13 7 -30 6 -17 -1 -27 2 -24 8 3 5 12 7 19 4 8 -3 19 3
26 12 11 14 11 15 0 5 -17 -15 -41 4 -34 27 3 8 -4 5 -14 -8 -17 -21 -21 -22
-32 -9 -8 10 -9 17 -1 22 5 3 10 -2 10 -12 0 -15 2 -16 10 -3 14 22 12 27 -11
33 -16 4 -20 11 -15 24 5 16 4 16 -9 -1 -13 -17 -15 -18 -15 -3 0 9 -4 17 -10
17 -5 0 -10 9 -10 19 0 11 -4 23 -10 26 -5 3 -10 1 -10 -5 0 -6 -5 -8 -10 -5
-6 4 -8 11 -5 16 11 17 -6 31 -21 18 -8 -6 -17 -9 -21 -5 -3 3 -1 6 5 6 6 0 9
7 6 15 -4 8 -10 13 -14 10 -5 -3 -11 -1 -15 5 -4 6 -11 7 -17 4 -7 -4 -8 -2
-4 4 6 11 -6 16 -27 13 -4 0 -6 2 -6 6 4 22 -2 43 -10 39 -5 -3 -12 1 -15 10
-3 9 -12 14 -20 11 -20 -8 -28 4 -13 21 10 13 9 14 -10 3 -16 -8 -23 -8 -23
-1 0 6 7 13 17 17 14 5 13 8 -7 15 -22 8 -22 9 -4 30 11 12 13 18 7 14 -9 -5
-13 0 -14 16 0 21 -1 21 -8 4 -9 -22 -20 -10 -16 16 2 10 0 17 -3 17 -22 -3
-32 2 -26 14 5 8 2 8 -9 -2 -13 -10 -17 -10 -17 -1 0 10 -4 9 -18 -1 -14 -11
-14 -10 2 8 18 22 18 22 -3 18 -12 -2 -19 0 -16 4 2 5 -2 14 -10 21 -8 7 -12
17 -8 24 4 6 -2 4 -12 -4 -11 -9 -16 -10 -11 -2 4 7 1 12 -8 12 -9 0 -16 6
-16 13 0 8 -4 7 -11 -3 -9 -12 -10 -11 -6 8 4 15 0 22 -10 22 -10 0 -13 6 -9
16 5 14 4 15 -9 4 -9 -7 -19 -10 -22 -6 -4 4 -2 11 6 15 10 6 9 10 -5 15 -9 3
-19 4 -22 1 -3 -3 1 -5 8 -5 7 0 11 -2 8 -5 -9 -10 -38 7 -38 22 0 9 -5 11
-12 7 -9 -5 -9 -2 1 9 12 15 10 17 -23 17 -21 0 -35 4 -31 10 3 5 13 6 23 3
10 -4 7 2 -8 15 -14 12 -19 21 -12 22 6 0 12 5 12 11 0 5 -4 7 -10 4 -5 -3
-18 -1 -27 4 -15 8 -15 11 -3 12 8 1 20 1 25 0 6 -1 0 7 -12 18 -12 10 -19 22
-15 25 3 4 -1 4 -9 1 -20 -7 -43 20 -33 37 6 11 5 11 -8 0 -13 -10 -18 -10
-24 -1 -4 8 -3 9 4 5 7 -4 12 -2 12 3 0 10 -14 15 -32 12 -4 0 -12 8 -18 19
-6 11 -16 17 -25 14 -9 -4 -15 0 -15 10 0 9 -7 16 -15 16 -8 0 -17 11 -21 25
-3 14 -10 22 -15 20 -4 -3 -6 -13 -3 -23 3 -9 -3 -5 -12 11 -10 15 -27 27 -37
27 -10 0 -16 4 -12 10 3 5 13 7 23 4 12 -4 11 -2 -3 7 -11 7 -23 16 -26 21 -3
6 -9 2 -13 -7 -8 -22 -26 -9 -21 16 3 15 0 19 -10 15 -8 -3 -17 -1 -20 5 -4 5
-10 7 -14 5 -4 -3 -8 1 -9 9 -1 8 -3 22 -4 30 -1 8 -5 12 -10 9 -8 -5 -10 0
-12 29 -1 6 -7 18 -14 25 -7 8 -9 18 -6 24 4 6 2 8 -3 5 -6 -4 -16 0 -23 9 -7
8 -19 13 -26 10 -7 -3 -16 -1 -19 5 -4 5 -3 8 2 7 4 -2 9 1 11 7 1 5 -10 9
-25 10 -22 0 -28 5 -28 22 0 12 -5 26 -9 30 -5 4 -6 2 -2 -4 4 -8 1 -13 -9
-13 -9 0 -14 4 -11 9 3 5 -1 12 -10 15 -8 3 -12 2 -9 -4 3 -6 -1 -7 -9 -4 -9
3 -17 10 -17 15 -1 5 -2 15 -3 22 -1 6 -10 11 -20 9 -12 -2 -16 1 -10 10 4 7
4 10 -1 6 -4 -4 -15 -2 -23 5 -13 10 -14 9 -7 -3 5 -8 -4 -4 -21 10 -20 17
-29 32 -27 45 4 19 4 19 -7 2 -9 -15 -14 -16 -26 -6 -12 10 -12 14 -2 21 9 6
5 7 -10 3 -20 -6 -22 -4 -18 19 3 15 1 24 -4 21 -5 -3 -16 2 -25 11 -13 14
-14 19 -3 25 13 8 8 11 -21 13 -8 1 -16 7 -19 14 -2 8 2 10 15 6 10 -4 2 5
-17 19 -19 15 -41 31 -48 38 -7 6 -20 8 -28 5 -10 -4 -13 -2 -8 6 5 8 2 9 -9
5 -10 -3 -17 -2 -17 2 0 5 5 11 12 13 6 2 -3 10 -20 17 -18 8 -32 18 -32 23 0
5 -4 6 -10 3 -5 -3 -10 -1 -10 6 0 8 -5 7 -17 -2 -15 -13 -15 -12 -3 11 12 22
11 23 -2 13 -12 -11 -14 -9 -14 10 1 23 -12 26 -49 11 -20 -7 -20 -7 -1 15 19
21 19 21 1 15 -10 -4 -16 -3 -13 2 4 5 -5 10 -19 11 -14 0 -29 7 -33 13 -4 7
-13 9 -20 5 -8 -5 -11 -4 -6 3 4 6 -8 18 -29 28 -28 13 -33 19 -24 30 9 11 7
14 -7 15 -18 0 -18 1 1 9 11 5 14 9 7 9 -7 1 -10 6 -7 11 3 6 1 10 -4 10 -6 0
-11 -4 -11 -10 0 -23 -16 -8 -18 17 -1 15 -9 33 -17 40 -9 8 -11 8 -5 1 17
-20 11 -29 -11 -18 -11 7 -18 14 -15 17 8 9 -14 33 -30 33 -8 0 -22 7 -31 15
-10 8 -21 15 -26 15 -14 -1 -54 45 -49 55 3 6 -3 3 -13 -5 -10 -8 -16 -10 -12
-3 4 6 3 14 -3 18 -5 3 -10 -2 -10 -12 -1 -11 -7 -4 -15 16 -12 28 -18 31 -30
21 -14 -12 -39 -5 -30 9 2 5 -3 17 -11 27 -9 10 -13 14 -10 7 4 -6 2 -14 -3
-17 -5 -4 -15 7 -23 24 -7 17 -18 28 -25 25 -7 -2 -13 0 -13 6 0 6 -10 9 -22
7 -17 -2 -22 2 -20 13 1 11 -4 16 -15 15 -14 -1 -18 6 -17 32 1 17 -2 32 -8
32 -5 0 -6 -4 -3 -10 3 -5 1 -10 -4 -10 -6 0 -11 5 -11 11 0 5 -4 7 -10 4 -5
-3 -10 1 -10 10 0 9 5 13 10 10 6 -3 10 -1 10 4 0 12 -11 14 -49 11 -20 -1
-23 2 -18 19 3 12 1 19 -4 15 -5 -3 -9 0 -9 6 0 6 -5 8 -12 4 -8 -5 -9 -2 -5
9 3 10 2 18 -3 18 -6 1 -16 2 -22 3 -7 1 -21 -2 -32 -7 -13 -6 -16 -6 -12 2 4
6 2 11 -4 11 -6 0 -8 4 -5 10 4 6 -1 7 -11 3 -12 -4 -15 -3 -10 5 4 7 2 12 -4
12 -6 0 -8 5 -5 10 3 6 2 10 -4 10 -5 0 -11 -6 -14 -12 -2 -7 -8 -10 -12 -6
-4 4 -2 15 6 25 8 9 9 14 2 10 -6 -4 -14 -1 -16 5 -4 9 -6 9 -6 1 -1 -14 -41
-5 -41 10 0 6 -3 7 -6 4 -4 -3 -16 -1 -28 5 -11 7 -25 11 -30 10 -5 -2 -3 5 4
15 8 10 11 15 6 11 -15 -12 -65 14 -98 50 -17 21 -36 36 -40 34 -4 -1 -8 2 -8
8 0 5 5 10 12 10 6 0 9 3 6 6 -3 3 -16 -1 -27 -8 -18 -11 -23 -11 -31 2 -13
20 -13 4 0 -20 8 -16 7 -18 -4 -14 -9 3 -18 14 -21 24 -3 11 -12 17 -20 14 -8
-4 -15 3 -17 18 -2 13 -9 22 -15 21 -8 -2 -10 4 -6 14 5 12 2 15 -10 10 -8 -3
-21 1 -27 9 -8 9 -9 14 -2 14 6 0 12 -5 14 -12 3 -9 6 -9 11 -1 4 7 -5 17 -22
24 -16 7 -27 17 -25 21 3 4 0 8 -7 8 -6 0 -9 8 -7 18 4 15 0 17 -23 14 -22 -3
-29 0 -29 12 0 9 -4 16 -10 16 -5 0 -6 -8 -3 -17 6 -16 5 -16 -11 -4 -9 8 -14
21 -11 30 5 13 4 14 -6 4 -7 -7 -20 -13 -28 -13 -11 0 -12 3 -4 8 13 8 5 26
-14 29 -7 2 -10 -4 -7 -15 5 -16 5 -16 -6 1 -6 9 -15 15 -21 12 -5 -4 -9 -1
-9 4 0 6 -6 11 -13 11 -8 0 -19 11 -25 25 -11 24 -42 35 -42 15 0 -5 7 -7 15
-4 8 4 15 2 15 -4 0 -6 -8 -9 -17 -7 -10 2 -25 4 -32 4 -12 1 -12 4 -3 13 7 7
12 17 12 23 0 5 -4 4 -9 -4 -7 -11 -14 -8 -32 13 -21 24 -57 38 -44 16 3 -5
-1 -10 -10 -10 -8 0 -19 8 -22 18 -8 20 -55 63 -62 56 -2 -2 4 -11 15 -20 18
-14 18 -15 -3 -4 -13 6 -23 15 -23 21 0 6 -12 10 -27 9 -43 -3 -45 -2 -32 23
6 12 8 19 4 15 -4 -4 -17 -2 -28 3 -15 8 -22 8 -28 -2 -7 -12 -9 -11 -9 0 0
21 -40 101 -51 101 -4 0 -6 -8 -2 -17 3 -10 3 -15 -1 -11 -7 6 -13 27 -15 53
-1 6 -6 3 -11 -5 -5 -8 -10 -11 -10 -6 0 5 -6 3 -14 -3 -11 -9 -12 -6 -8 15 3
19 1 25 -7 20 -6 -4 -8 -13 -4 -19 4 -7 0 -7 -10 1 -9 8 -21 11 -28 7 -8 -6
-8 -2 0 14 7 12 8 21 4 20 -22 -4 -34 2 -27 14 4 6 -2 3 -14 -7 -14 -12 -22
-14 -22 -7 0 7 -5 9 -12 5 -6 -4 -8 -3 -5 3 4 6 0 16 -8 23 -12 10 -15 10 -15
-1 0 -11 -2 -11 -9 1 -6 8 -7 18 -4 24 3 5 1 6 -6 2 -6 -4 -8 -12 -5 -18 5 -7
2 -8 -5 -4 -7 5 -10 15 -6 23 4 13 3 14 -9 4 -8 -7 -21 -9 -27 -5 -8 4 -9 3
-5 -4 8 -14 -13 -16 -33 -3 -9 6 -10 11 -2 15 15 10 14 23 -1 23 -7 0 -22 4
-32 9 -15 6 -17 4 -11 -7 4 -8 -5 0 -21 16 -16 17 -39 30 -51 31 -12 0 -20 -2
-18 -6 2 -4 -2 -7 -11 -7 -9 0 -12 7 -9 17 4 11 -5 21 -30 33 -19 9 -35 22
-35 29 0 9 -3 9 -12 0 -15 -15 -38 -16 -38 -1 0 5 5 7 10 4 6 -3 10 -1 10 4 0
6 -7 11 -15 11 -8 0 -15 4 -15 10 0 5 -8 6 -17 3 -15 -6 -15 -7 3 -14 16 -6
16 -8 2 -8 -9 -1 -21 5 -25 13 -8 14 -45 36 -60 36 -4 0 -1 -5 7 -10 18 -12 2
-12 -25 0 -11 5 -14 9 -6 9 10 1 11 4 2 14 -6 8 -8 16 -5 20 3 3 -3 10 -14 16
-11 6 -22 8 -25 5 -3 -4 -18 6 -32 20 -14 14 -32 26 -40 26 -8 0 -17 5 -21 12
-4 7 -3 8 4 4 7 -4 12 -5 12 -2 0 3 -14 13 -30 21 -30 16 -30 16 -36 -15 -4
-17 -11 -33 -17 -37 -5 -3 -7 -1 -3 5 3 6 2 13 -3 16 -5 4 -12 -2 -14 -11 -3
-11 -5 -8 -6 10 0 15 -6 27 -12 27 -5 0 -7 4 -4 10 4 6 -1 7 -11 3 -14 -5 -16
-3 -11 11 4 10 3 15 -3 11 -6 -3 -15 -3 -21 1 -8 4 -7 9 2 15 10 6 6 9 -13 9
-15 0 -33 7 -41 15 -8 8 -17 11 -21 8 -3 -4 -6 -1 -6 6 0 8 -6 11 -16 7 -8 -3
-13 -2 -10 3 3 5 -3 11 -14 14 -15 4 -20 0 -20 -16 -1 -21 -1 -21 -14 3 -8 14
-12 29 -9 34 4 5 1 6 -6 2 -7 -5 -21 0 -32 10 -17 16 -19 16 -19 1 0 -10 -5
-17 -11 -17 -5 0 -7 6 -3 13 5 8 2 7 -9 -2 -10 -8 -21 -11 -24 -7 -4 4 -1 11
7 16 15 10 8 14 -22 11 -9 -1 -23 7 -30 18 -11 18 -13 18 -26 3 -7 -9 -11 -12
-8 -6 3 6 -1 11 -9 11 -17 0 -19 -8 -7 -22 4 -6 3 -7 -2 -3 -5 3 -15 4 -22 1
-10 -3 -14 2 -13 18 0 23 1 23 10 4 l9 -20 -3 20 c-2 15 -9 19 -27 17 -14 -2
-26 -8 -28 -13 -2 -5 -17 -2 -33 6 -16 9 -29 13 -29 10 0 -15 -60 28 -61 43 0
10 -3 12 -6 5 -3 -9 -10 -10 -23 -3 -13 7 -20 6 -23 -3 -3 -6 -6 -3 -6 7 -1
20 -1 20 -16 0 -9 -12 -14 -14 -15 -6 0 9 -10 12 -30 8 -17 -2 -28 0 -24 5 3
5 9 7 14 4 5 -3 11 -1 14 4 4 6 -8 8 -28 5 -20 -2 -38 1 -42 8 -5 7 -2 9 8 6
8 -4 21 -3 27 2 9 5 4 8 -13 8 -15 0 -29 -4 -32 -9 -7 -12 -24 -11 -24 2 0 5
6 7 13 3 7 -4 9 -3 4 2 -12 12 -30 12 -39 -1 -5 -6 -8 -3 -8 8 0 12 -8 17 -30
17 -16 0 -30 -5 -30 -11 0 -5 6 -7 13 -3 6 4 8 3 4 -1 -14 -16 -39 -15 -33 1
4 10 0 15 -12 13 -30 -3 -38 1 -22 11 23 14 7 21 -28 11 -30 -9 -56 2 -30 12
8 4 7 6 -3 6 -9 1 -19 -5 -22 -13 -4 -9 -14 -12 -26 -9 -12 3 -19 9 -16 13 3
4 -9 10 -25 12 -17 3 -30 1 -30 -4 0 -4 -4 -8 -9 -8 -6 0 -8 9 -6 19 3 17 0
18 -26 11 -24 -7 -29 -6 -29 8 0 13 -2 14 -8 4 -10 -15 -50 -24 -66 -15 -6 4
-17 8 -26 9 -56 9 -87 17 -100 29 -16 13 -40 9 -52 -9 -5 -7 -8 -7 -8 3 0 7
-6 11 -15 7 -9 -3 -21 4 -31 19 -9 14 -21 22 -26 19 -6 -4 -5 -10 3 -15 10 -6
6 -8 -11 -7 -14 2 -28 8 -32 13 -5 6 -8 5 -8 -3 0 -7 -5 -10 -10 -7 -6 4 -8
10 -5 15 6 10 -21 7 -31 -3 -4 -4 -12 -7 -18 -7 -6 0 -5 5 2 12 16 16 15 25
-3 25 -8 0 -12 -4 -10 -8 7 -11 -27 -16 -55 -8 -14 4 -19 7 -12 8 7 1 10 6 7
11 -5 8 -11 7 -21 0 -7 -7 -19 -10 -26 -7 -8 3 -6 6 5 6 10 1 15 6 12 11 -4 6
-11 8 -16 5 -5 -4 -9 -1 -9 6 0 8 -12 9 -37 5 -29 -5 -35 -4 -23 4 12 9 8 10
-17 6 -24 -4 -33 -2 -33 8 0 7 -7 19 -15 26 -10 9 -15 9 -15 1 0 -15 -27 -14
-36 1 -5 7 -3 8 6 3 9 -5 11 -4 6 4 -9 14 -26 5 -26 -15 0 -12 -2 -12 -14 -2
-8 7 -12 16 -9 21 2 4 -4 7 -14 7 -15 0 -16 2 -3 10 8 5 10 10 4 10 -5 0 -15
-5 -22 -12 -8 -8 -15 -8 -27 2 -8 7 -15 9 -15 4 0 -5 -7 1 -15 13 -19 27 -48
23 -56 -8 -6 -21 -14 -9 -10 14 1 5 -3 6 -9 2 -6 -3 -7 -11 -4 -17 5 -7 2 -8
-5 -4 -7 5 -10 14 -7 21 2 7 -1 16 -9 19 -10 3 -12 0 -8 -12 4 -12 -2 -10 -21
8 -16 15 -25 18 -21 9 3 -9 -2 -22 -12 -30 -16 -12 -17 -12 -6 1 8 10 9 21 3
30 -6 9 -10 10 -10 3 0 -6 -8 -10 -17 -8 -10 2 -22 4 -27 4 -4 1 -5 9 -2 18 6
14 3 14 -15 -3 -14 -11 -19 -13 -14 -4 6 10 2 9 -12 -3 -20 -17 -21 -17 -19 0
0 9 -3 18 -9 18 -5 1 -20 5 -33 9 -15 5 -29 3 -39 -6 -14 -11 -16 -11 -8 1 6
11 4 13 -8 8 -10 -4 -17 -1 -17 6 -1 7 -7 1 -15 -13 l-15 -25 4 28 c5 30 -3
29 -40 -5 -13 -11 -24 -15 -28 -10 -3 6 1 12 9 16 8 3 15 11 15 18 0 8 -3 9
-8 3 -4 -5 -20 -11 -36 -13 -22 -3 -27 0 -23 12 4 9 2 16 -3 16 -6 0 -10 -6
-10 -13 0 -8 -7 -14 -15 -14 -11 0 -12 4 -4 13 7 8 6 14 -2 20 -8 4 -9 3 -5
-4 4 -7 3 -12 -3 -12 -5 0 -12 6 -15 13 -3 6 -3 2 0 -10 3 -13 2 -23 -3 -23
-5 0 -10 12 -11 27 -2 31 -10 42 -20 27 -4 -6 -25 -14 -47 -17 -30 -5 -36 -4
-25 4 11 8 6 9 -20 5 -29 -5 -32 -4 -16 5 15 9 16 13 5 20 -8 4 -25 5 -38 2
-16 -4 -22 -2 -17 5 5 8 2 10 -8 6 -9 -3 -13 -11 -9 -17 3 -6 1 -7 -6 -3 -9 6
-9 12 1 24 11 14 8 14 -16 -2 -16 -10 -26 -14 -22 -8 3 5 -3 12 -14 15 -11 3
-20 0 -20 -6 0 -9 -2 -9 -8 0 -5 7 -13 9 -21 3 -17 -10 -43 -2 -35 11 3 5 -1
9 -10 9 -8 0 -16 -5 -18 -10 -2 -6 -15 1 -31 15 -33 31 -36 21 -4 -13 22 -25
22 -25 0 -11 -12 7 -26 22 -32 34 -5 11 -10 14 -10 8 -1 -7 -5 -13 -11 -13 -5
0 -7 8 -3 18 5 13 1 12 -14 -5 -11 -12 -28 -20 -39 -18 -10 2 -23 4 -27 4 -5
1 -5 6 -2 11 4 6 -7 10 -24 10 -17 0 -31 4 -31 9 0 12 -33 9 -42 -4 -4 -5 -10
-2 -14 8 -8 22 -25 22 -18 0 5 -14 4 -15 -4 -4 -5 7 -14 11 -20 7 -6 -3 -14
-1 -18 5 -4 7 -3 9 4 5 6 -3 13 -2 17 3 3 6 -4 8 -17 6 -13 -3 -25 -10 -26
-15 -2 -6 -13 -1 -23 11 -16 19 -23 21 -44 11 -14 -6 -25 -8 -25 -4 0 4 -9 8
-20 9 -13 1 -18 -2 -14 -9 4 -7 2 -8 -4 -4 -7 4 -12 14 -12 22 0 8 -5 14 -11
14 -5 0 -7 4 -4 10 8 13 -28 0 -37 -14 -5 -8 -8 -7 -8 1 0 7 -10 17 -22 23
-22 11 -22 10 -4 -4 22 -18 14 -21 -14 -6 -16 9 -19 8 -14 -7 5 -17 5 -17 -9
0 -8 9 -19 17 -26 17 -6 0 -11 4 -11 9 0 5 -9 11 -21 14 -15 4 -19 2 -15 -9 3
-8 1 -14 -5 -14 -5 0 -12 7 -15 15 -5 12 -10 13 -20 4 -13 -11 -18 -3 -16 22
1 3 -5 6 -13 6 -8 0 -12 -4 -9 -8 2 -4 -4 -13 -15 -19 -16 -8 -19 -8 -15 3 3
8 -2 17 -10 20 -9 4 -16 2 -16 -3 0 -6 -5 -10 -11 -10 -5 0 -7 6 -4 13 4 6 -1
3 -9 -7 -9 -11 -17 -17 -17 -13 -1 4 -2 13 -3 20 -1 6 -9 11 -18 11 -11 -1
-15 4 -11 15 4 15 3 15 -9 0 -16 -19 -66 -30 -75 -16 -3 5 -1 7 4 4 6 -4 13
-1 16 6 4 10 -2 13 -20 9 -20 -4 -24 -2 -18 8 6 10 4 11 -6 4 -21 -13 -59 -12
-59 2 0 7 -7 14 -14 17 -10 4 -13 1 -10 -7 3 -8 0 -17 -7 -22 -7 -4 -10 -3 -6
3 7 11 -23 23 -61 23 -12 0 -25 7 -28 15 -4 8 -11 15 -16 15 -6 0 -7 -8 -4
-17 5 -13 0 -11 -19 7 -16 15 -29 21 -33 14 -4 -6 -15 -14 -26 -17 -13 -5 -17
-3 -13 8 7 18 -9 30 -19 14 -5 -8 -3 -9 6 -4 9 5 11 4 6 -4 -10 -16 -26 -4
-19 14 3 9 -1 15 -11 15 -9 0 -16 -8 -16 -17 0 -11 -3 -14 -8 -7 -8 12 -54 29
-62 23 -3 -2 -4 -10 -2 -19 2 -9 0 -11 -5 -5 -12 15 -73 47 -73 39 0 -5 -5 -3
-11 3 -8 8 -20 8 -35 3 -19 -8 -24 -6 -25 8 0 9 -3 12 -5 6 -6 -14 -44 -6 -44
8 0 5 -4 7 -9 3 -5 -3 -12 -1 -16 5 -9 15 -64 9 -58 -7 3 -7 1 -13 -5 -13 -5
0 -13 10 -16 23 -7 21 -7 21 -16 2 -5 -11 -9 -15 -9 -8 -1 7 -21 10 -61 9 -33
-2 -60 1 -60 7 0 5 -11 6 -24 3 -28 -7 -46 11 -25 25 18 12 -30 7 -49 -4 -14
-9 -28 16 -17 32 3 7 0 8 -9 5 -9 -3 -13 -11 -9 -17 4 -6 -2 -8 -16 -4 -19 5
-21 3 -9 -11 12 -15 11 -16 -5 -3 -10 8 -28 16 -39 16 -12 1 -27 10 -35 21
-12 16 -15 17 -23 4 -5 -8 -10 -12 -10 -8 0 4 -11 3 -25 -2 -16 -6 -25 -6 -25
0 0 6 5 10 11 10 8 0 7 5 -2 16 -12 14 -14 14 -25 0 -10 -15 -12 -14 -17 5 -3
12 -10 18 -16 14 -6 -3 -9 -11 -6 -16 4 -5 -1 -9 -10 -9 -9 0 -14 4 -10 9 3 5
1 12 -5 16 -5 3 -10 2 -10 -4 0 -6 -6 -8 -14 -5 -8 3 -17 1 -21 -5 -4 -8 -12
-8 -25 -1 -10 5 -26 7 -34 4 -11 -4 -19 2 -25 17 -5 13 -10 18 -10 11 -1 -7
-6 -10 -11 -7 -6 4 -8 11 -5 16 7 10 -10 11 -42 3 -13 -4 -20 -11 -16 -17 3
-6 1 -7 -6 -3 -6 4 -9 16 -6 25 3 12 0 18 -10 18 -9 0 -14 -6 -11 -14 3 -7 -1
-13 -10 -13 -8 0 -12 5 -8 11 3 6 -1 10 -12 9 -33 -4 -45 0 -38 11 4 8 9 7 15
-2 5 -8 9 -9 9 -3 0 20 -13 24 -31 8 -12 -11 -19 -12 -24 -4 -5 8 -10 8 -20 0
-16 -13 -35 -5 -35 13 0 7 -9 19 -19 27 -11 7 -17 18 -14 23 3 5 -4 4 -14 -2
-11 -6 -24 -7 -28 -3 -5 4 -5 2 -2 -5 5 -7 0 -9 -13 -6 -17 5 -18 8 -8 21 11
13 11 14 0 8 -7 -4 -20 -2 -28 5 -12 10 -13 9 -7 -7 6 -16 5 -17 -9 -6 -13 10
-18 10 -24 1 -4 -7 -3 -9 3 -6 5 3 10 0 10 -8 0 -13 -4 -12 -19 2 -10 9 -18
13 -18 8 0 -4 -7 -2 -15 5 -8 7 -12 16 -9 21 3 5 -2 6 -10 3 -15 -6 -20 -18
-17 -37 1 -5 -3 -6 -9 -2 -6 3 -7 12 -3 18 5 9 3 9 -8 0 -10 -8 -19 -9 -29 -2
-11 8 -12 12 -3 16 7 2 13 9 13 15 0 7 -5 6 -14 -1 -18 -15 -54 -22 -61 -12
-2 5 5 8 17 7 12 0 23 4 25 10 2 7 -7 10 -28 8 -26 -3 -30 -1 -25 14 4 11 0
10 -10 -5 -13 -18 -19 -20 -34 -11 -17 11 -17 13 -2 25 15 12 14 13 -6 3 -12
-6 -27 -8 -32 -5 -5 3 -12 0 -16 -6 -4 -7 -3 -10 2 -7 5 3 17 -3 27 -14 22
-23 16 -23 -30 2 -21 11 -32 20 -25 20 6 0 12 7 12 17 0 9 -3 14 -6 10 -3 -3
-17 -2 -31 4 -15 5 -22 5 -18 0 3 -6 -3 -14 -12 -20 -16 -9 -16 -10 -1 -11 9
0 18 5 20 12 3 7 7 5 11 -6 4 -10 3 -15 -3 -11 -6 3 -10 1 -10 -5 0 -7 -6 -8
-19 -1 -10 6 -22 7 -26 3 -4 -4 -3 3 3 15 9 17 9 22 -4 27 -8 3 -12 2 -9 -4 9
-14 -2 -12 -29 6 -16 10 -26 12 -31 4 -9 -14 -27 -2 -18 13 3 7 -3 3 -15 -7
-12 -11 -22 -16 -22 -11 0 4 -7 2 -15 -5 -12 -10 -15 -10 -15 0 0 7 8 19 18
26 15 11 12 12 -17 4 -19 -5 -39 -6 -45 -1 -6 5 -19 7 -29 5 -14 -2 -17 2 -12
14 5 14 3 13 -14 -2 -12 -11 -21 -14 -26 -7 -3 6 -1 11 4 11 6 0 11 5 11 12 0
6 -8 3 -20 -7 -19 -17 -20 -17 -37 2 -10 10 -14 13 -10 7 6 -9 2 -11 -12 -7
-12 3 -21 1 -21 -6 0 -6 -5 -11 -11 -11 -5 0 -8 4 -5 9 3 5 -7 14 -24 19 -23
9 -33 8 -44 -4 -8 -8 -19 -14 -24 -14 -10 0 -26 29 -24 41 1 4 -14 6 -33 4
-19 -2 -37 1 -41 6 -3 5 -13 2 -22 -7 -10 -11 -17 -13 -20 -5 -2 6 -11 11 -19
11 -13 0 -13 2 -2 17 9 11 2 9 -20 -6 -31 -22 -33 -23 -22 -3 9 17 8 19 -9 15
-11 -3 -27 0 -35 7 -8 7 -15 9 -15 6 0 -4 -7 0 -16 8 -8 9 -21 13 -27 9 -7 -4
-20 -6 -31 -4 -11 1 -16 -2 -12 -8 4 -6 3 -11 -3 -11 -6 0 -14 12 -17 26 -6
22 -8 24 -16 10 -5 -9 -6 -21 -2 -28 4 -7 3 -8 -5 -4 -6 4 -10 15 -9 23 2 9
-3 18 -9 20 -7 3 -13 -3 -13 -14 -1 -11 -6 -5 -15 15 -8 19 -19 31 -25 27 -7
-5 -5 -11 6 -19 12 -9 14 -15 6 -20 -7 -4 -12 -2 -12 3 0 6 -7 11 -15 11 -8 0
-24 5 -34 12 -15 9 -26 9 -44 1 -21 -10 -26 -8 -38 13 -11 21 -14 22 -21 9 -5
-8 -6 -20 -3 -25 3 -5 -1 -7 -9 -4 -12 4 -13 11 -5 32 9 25 9 25 -8 10 -16
-14 -20 -14 -32 -1 -9 10 -23 13 -41 9 -22 -4 -29 -1 -33 15 -5 17 -11 19 -49
15 -46 -5 -75 5 -64 23 4 6 2 11 -3 11 -6 0 -11 -7 -11 -16 0 -8 -5 -12 -10
-9 -6 4 -7 11 -4 17 5 8 1 9 -10 5 -10 -4 -20 -7 -23 -7 -3 0 1 -8 8 -17 12
-16 12 -16 -7 0 -12 10 -26 17 -32 15 -6 -2 -18 6 -27 17 -9 11 -14 14 -10 8
4 -8 -1 -13 -12 -14 -10 0 -28 -2 -41 -3 -21 -2 -21 -1 -8 19 12 19 12 22 0
22 -8 0 -14 -6 -14 -13 0 -6 -7 -15 -16 -18 -9 -4 -13 -2 -8 5 4 8 -1 9 -15 4
-20 -6 -26 2 -22 28 0 4 -4 7 -10 7 -6 0 -8 -7 -5 -16 5 -14 4 -15 -9 -4 -12
10 -15 9 -15 -6 -1 -17 -3 -16 -20 5 -11 12 -17 28 -13 34 3 6 1 7 -6 3 -6 -4
-9 -11 -7 -15 3 -3 -4 -7 -15 -7 -15 0 -19 5 -15 19 2 10 2 16 -1 13 -4 -3
-12 -1 -20 6 -8 6 -13 7 -12 2 4 -20 -2 -39 -9 -29 -4 6 -14 10 -22 10 -8 0
-14 7 -14 16 1 9 -5 16 -12 16 -8 0 -14 -5 -14 -11 -1 -6 -10 0 -21 13 -16 20
-22 22 -32 11 -9 -10 -9 -11 1 -6 18 10 15 1 -5 -15 -11 -10 -14 -10 -9 -1 4
7 2 12 -4 12 -6 0 -8 6 -4 13 5 9 4 9 -6 0 -14 -12 -37 -7 -59 14 -10 11 -16
11 -27 2 -12 -9 -18 -8 -30 7 -12 15 -15 16 -11 2 4 -11 1 -15 -11 -13 -9 2
-20 4 -24 4 -5 1 -8 7 -8 15 0 8 -8 13 -17 11 -10 -1 -17 -8 -15 -15 1 -6 -2
-9 -8 -5 -7 4 -7 12 0 26 7 11 7 19 1 19 -5 0 -11 -5 -13 -12 -3 -7 -9 -8 -19
-3 -24 16 -38 14 -33 -3 3 -10 -2 -5 -11 11 -17 29 -30 34 -41 15 -5 -7 -11
-5 -21 7 -7 11 -13 15 -13 9 0 -5 -5 -2 -10 6 -8 12 -10 10 -10 -10 0 -19 -2
-22 -9 -10 -6 8 -7 18 -4 24 3 5 1 6 -6 2 -6 -4 -9 -11 -6 -16 3 -4 -4 -6 -15
-3 -11 3 -17 9 -14 14 3 5 1 9 -5 9 -5 0 -13 -5 -16 -10 -4 -6 -13 -7 -23 -1
-9 4 -24 6 -32 3 -11 -3 -12 -2 -4 8 9 9 17 9 32 1 15 -8 21 -7 25 2 5 13 -59
17 -78 5 -6 -3 -20 2 -33 12 -15 13 -18 20 -10 24 7 3 0 3 -16 -1 -18 -4 -31
-1 -36 7 -4 7 -28 14 -52 15 -59 3 -66 5 -43 15 14 6 8 7 -22 5 -31 -3 -45 1
-52 12 -5 9 -15 14 -24 10 -9 -3 -19 -2 -22 3 -4 6 -13 10 -21 10 -8 0 -13 -4
-10 -9 5 -8 -2 -8 -33 -2 -2 1 2 8 9 16 8 10 9 15 2 15 -6 0 -15 -8 -21 -17
-8 -15 -12 -16 -23 -4 -11 12 -11 13 1 6 10 -6 12 -4 7 4 -5 7 -17 9 -29 5
-22 -6 -22 -6 -2 9 16 13 17 15 4 13 -10 -1 -23 -7 -31 -14 -11 -9 -17 -9 -26
0 -15 15 -16 31 0 22 7 -4 8 -3 4 5 -6 9 -11 9 -23 0 -12 -10 -16 -10 -24 2
-7 12 -9 12 -9 -1 0 -12 -2 -13 -9 -1 -7 11 -9 11 -13 0 -2 -7 -9 -9 -17 -5
-11 7 -11 10 0 18 11 8 10 9 -2 5 -9 -3 -23 0 -30 6 -11 10 -11 9 -1 -5 10
-12 10 -18 1 -24 -8 -4 -9 -3 -5 4 4 7 1 12 -9 12 -10 0 -13 5 -9 12 5 8 2 9
-10 5 -9 -4 -28 0 -42 9 -13 9 -33 14 -44 11 -12 -3 -18 -1 -14 5 4 6 -2 8
-12 6 -11 -2 -25 3 -32 12 -12 13 -13 13 -8 -2 3 -10 1 -20 -4 -23 -6 -4 -10
2 -10 12 0 15 -2 16 -10 3 -8 -13 -10 -13 -10 2 0 11 -6 16 -20 13 -11 -2 -20
1 -20 7 0 5 -7 7 -16 4 -8 -3 -12 -2 -9 4 7 11 -32 33 -45 25 -5 -3 -7 -13 -4
-23 5 -14 3 -14 -10 2 -8 10 -13 24 -10 30 3 6 -1 3 -9 -6 -17 -22 -39 -24
-31 -3 4 10 0 13 -15 10 -12 -2 -21 1 -21 7 0 5 -7 8 -15 5 -8 -4 -17 -2 -20
3 -3 4 -16 7 -30 6 -13 -2 -24 0 -23 3 3 25 -5 33 -12 14 -5 -13 -15 -23 -22
-23 -9 0 -9 3 2 10 22 14 -12 24 -61 17 -32 -4 -38 -3 -29 8 7 8 7 15 1 19 -5
4 -12 2 -16 -4 -9 -14 -27 -1 -19 13 5 9 4 9 -6 0 -14 -13 -43 -6 -34 8 3 5 0
9 -5 9 -6 0 -11 -4 -11 -8 0 -5 -7 -9 -15 -9 -11 0 -13 6 -9 21 6 19 6 19 -11
2 -14 -13 -20 -15 -26 -5 -4 7 -5 18 -3 24 3 5 -1 2 -8 -7 -13 -15 -15 -15
-26 0 -7 9 -10 11 -6 4 5 -11 2 -12 -13 -3 -11 6 -24 7 -29 3 -5 -4 -3 0 3 8
10 13 8 16 -6 16 -10 0 -17 -6 -14 -12 2 -7 0 -15 -6 -19 -10 -6 -15 7 -12 30
1 6 -6 1 -15 -10 -13 -15 -15 -16 -11 -3 3 9 -1 22 -11 30 -9 7 -13 8 -9 2 7
-12 -21 -29 -31 -19 -3 3 0 5 6 5 7 0 12 5 12 10 0 7 -7 7 -21 0 -11 -7 -23
-9 -27 -6 -3 3 0 6 7 6 7 0 9 5 6 10 -4 6 -10 8 -15 5 -4 -3 -13 2 -20 10 -8
9 -17 12 -24 7 -16 -13 -56 -21 -56 -12 0 5 6 11 13 13 6 3 1 6 -13 6 -15 1
-31 6 -37 12 -9 9 -10 6 -6 -12 l5 -24 -18 25 c-9 14 -19 27 -20 29 -2 2 -16
5 -31 7 -47 5 -60 9 -77 23 -9 8 -16 9 -16 3 0 -6 6 -12 13 -15 6 -3 2 -4 -11
-4 -12 1 -21 6 -18 12 2 7 -9 11 -30 10 -19 -1 -37 2 -41 8 -3 5 -9 4 -13 -3
-10 -17 -31 -3 -23 16 3 8 2 14 -3 13 -5 -1 -11 -1 -14 1 -27 10 -50 8 -50 -5
0 -18 -16 -20 -26 -3 -4 7 -3 8 4 4 8 -5 10 -1 5 10 -4 11 -8 13 -11 6 -2 -7
-15 -12 -29 -12 -18 0 -24 4 -19 15 3 8 2 14 -2 14 -4 -1 -9 0 -12 1 -17 7
-57 4 -53 -4 4 -5 1 -6 -6 -2 -7 5 -10 15 -6 24 3 9 3 13 -1 9 -4 -4 -14 -1
-23 6 -14 11 -14 10 -2 -5 11 -15 11 -18 -1 -18 -8 0 -20 6 -27 13 -11 9 -14
9 -18 0 -3 -10 -8 -9 -20 2 -8 8 -18 13 -23 10 -5 -3 -15 4 -23 16 -14 20 -16
20 -27 2 -10 -16 -11 -15 -6 7 5 23 4 24 -9 6 -14 -19 -41 -13 -29 6 4 7 2 8
-5 4 -6 -4 -9 -11 -6 -16 3 -5 -4 -7 -16 -5 -28 6 -37 15 -15 15 9 0 15 4 11
10 -3 5 -13 6 -22 3 -11 -4 -14 -3 -9 5 5 8 2 10 -8 6 -9 -3 -16 -2 -16 3 0
12 -37 10 -47 -2 -5 -4 -3 -5 4 -1 6 3 14 2 18 -4 3 -5 -1 -10 -10 -10 -8 0
-20 10 -25 23 -7 18 -9 18 -9 4 -1 -10 -6 -15 -11 -12 -6 4 -7 11 -4 17 4 6
-1 6 -14 -1 -12 -7 -23 -7 -26 -2 -4 5 0 12 6 14 8 3 6 6 -4 6 -10 1 -18 6
-18 11 0 6 -5 10 -11 10 -8 0 -8 -5 1 -15 14 -17 3 -20 -19 -6 -9 6 -22 6 -32
1 -13 -7 -18 -5 -22 10 -6 25 -27 26 -27 3 -1 -13 -5 -10 -16 10 -8 15 -17 27
-20 27 -3 0 -3 -4 0 -9 3 -5 -7 -8 -23 -7 -16 0 -27 4 -24 9 2 4 8 5 13 2 5
-3 11 -1 14 3 3 5 -9 9 -27 9 -17 -1 -31 4 -30 9 2 11 -46 11 -89 -1 -19 -5
-28 -3 -28 5 0 6 4 9 9 5 5 -3 12 -1 16 5 4 6 -11 10 -40 10 -40 0 -47 3 -56
28 -11 26 -11 26 -19 5 -9 -21 -47 -26 -43 -5 2 6 -6 14 -17 17 -11 4 -18 10
-16 14 3 4 -4 7 -14 7 -10 0 -16 -5 -13 -11 4 -5 -2 -3 -13 6 -23 20 -45 14
-38 -9 2 -9 -1 -7 -7 5 -6 12 -18 24 -26 27 -8 4 -11 1 -7 -5 3 -6 -3 -5 -14
2 -12 7 -18 18 -15 24 3 5 0 4 -8 -4 -11 -10 -11 -15 -2 -18 7 -3 13 -9 13
-15 0 -5 -14 1 -32 13 -17 13 -28 18 -24 11 4 -8 2 -10 -7 -6 -9 3 -13 13 -10
25 4 13 0 19 -12 19 -13 0 -15 -3 -7 -13 6 -7 7 -18 3 -26 -7 -10 -10 -9 -16
8 -7 23 -25 29 -25 9 0 -10 -3 -9 -9 1 -7 11 -9 11 -14 0 -4 -11 -6 -11 -6 -1
-1 7 6 15 14 18 8 4 15 11 15 16 0 6 -6 6 -14 -1 -10 -8 -21 -9 -33 -3 -10 5
-24 7 -32 4 -10 -3 -11 0 -5 9 6 12 5 12 -8 1 -11 -9 -18 -10 -23 -2 -4 6 -20
8 -42 4 -34 -6 -35 -6 -23 17 7 13 9 21 5 17 -5 -4 -14 -3 -22 3 -7 6 -13 8
-13 3 0 -5 -5 -2 -11 6 -8 12 -10 10 -5 -10 4 -22 4 -23 -8 -7 -7 9 -20 17
-29 17 -11 0 -15 -6 -11 -17 5 -17 5 -17 -9 0 -8 9 -23 17 -33 18 -11 0 -13 3
-6 6 27 11 9 19 -33 16 -32 -3 -50 0 -61 11 -18 19 -38 21 -28 4 4 -7 -3 -4
-16 7 -13 11 -20 14 -16 8 5 -8 1 -13 -9 -13 -11 0 -15 5 -11 15 7 18 -5 20
-23 3 -11 -11 -12 -10 -7 0 4 7 2 19 -4 27 -10 12 -15 12 -38 -3 -19 -12 -27
-13 -30 -4 -2 7 -8 10 -13 6 -5 -3 -8 0 -7 8 2 7 -4 11 -12 9 -28 -7 -35 -6
-38 4 -2 5 2 11 9 14 7 2 9 -1 4 -9 -6 -9 -4 -11 4 -6 7 5 9 11 6 15 -10 10
-54 8 -48 -2 3 -5 0 -7 -8 -5 -8 3 -13 11 -12 17 2 6 0 11 -5 12 -4 0 -17 2
-29 3 -12 1 -20 -1 -17 -6 3 -4 1 -8 -5 -8 -5 0 -13 5 -16 10 -4 6 -15 8 -25
5 -10 -3 -24 0 -32 8 -7 7 -20 11 -28 9 -13 -5 -13 -3 0 14 14 17 13 18 -1 7
-20 -16 -77 -12 -84 5 -3 7 0 10 5 7 6 -3 7 1 3 10 -4 13 -8 14 -14 4 -4 -7
-15 -14 -23 -15 -9 -1 -14 1 -12 4 9 15 -21 38 -51 39 -22 0 -30 -4 -26 -13 3
-8 0 -14 -6 -14 -6 0 -11 5 -11 11 0 5 -4 8 -9 4 -5 -3 -12 -1 -15 4 -4 5 -17
8 -31 6 -14 -1 -30 4 -36 11 -6 8 -18 14 -25 14 -7 0 -11 6 -8 14 3 8 0 17 -7
22 -8 4 -10 3 -5 -4 12 -20 -4 -35 -17 -17 -13 17 -73 32 -62 15 3 -5 4 -10 0
-10 -3 0 -9 11 -14 23 -5 13 -16 24 -25 24 -11 0 -13 -4 -5 -13 8 -9 5 -11
-11 -7 -11 3 -23 10 -27 16 -4 6 -1 7 7 2 8 -5 11 -4 7 2 -4 6 -18 9 -32 8
-18 -2 -25 2 -26 13 0 14 -2 13 -9 -3 -6 -13 -9 -15 -9 -5 -1 9 -4 11 -9 5
-12 -16 -32 -16 -32 0 0 8 -3 14 -7 14 -5 -1 -15 -1 -23 1 -11 1 -9 4 5 10 16
7 17 9 3 9 -9 1 -20 -4 -23 -10 -5 -6 -12 -4 -22 8 -8 10 -11 11 -7 3 7 -12 5
-13 -8 -3 -8 7 -18 10 -21 6 -4 -3 -7 -1 -7 6 0 7 -4 9 -10 6 -5 -3 -10 -1
-10 5 0 6 -4 9 -9 6 -5 -4 -12 0 -15 6 -4 7 -4 3 -2 -9 3 -19 1 -21 -14 -13
-11 6 -22 16 -26 23 -5 7 0 6 11 -3 17 -14 17 -14 5 6 -14 22 -47 26 -42 5 2
-9 -3 -9 -18 -1 -11 6 -18 15 -15 19 2 5 -9 7 -25 6 -17 -1 -33 1 -36 6 -3 5
-9 7 -14 4 -5 -3 -11 -1 -15 5 -3 5 -1 10 6 10 7 0 9 3 6 6 -4 4 -14 1 -22 -6
-9 -7 -15 -9 -14 -4 4 22 -2 26 -14 10 -12 -16 -14 -16 -40 4 -15 12 -27 16
-27 10 0 -6 -5 -8 -10 -5 -6 4 -8 11 -4 16 3 6 -4 7 -20 3 -17 -4 -26 -2 -26
6 0 6 5 8 12 4 6 -4 8 -3 5 3 -11 17 -67 22 -67 6 0 -8 -5 -11 -10 -8 -6 4 -7
11 -4 17 4 7 -2 8 -17 3 -22 -7 -23 -7 -9 10 8 11 10 16 3 12 -6 -4 -13 -2
-15 4 -3 8 -10 6 -21 -5 -9 -10 -17 -14 -17 -9 0 5 5 14 10 19 7 7 4 10 -12
10 -13 -1 -26 -5 -30 -10 -4 -6 -12 -5 -21 2 -7 7 -17 9 -20 5 -4 -3 -7 1 -7
11 0 9 -4 14 -10 11 -5 -3 -10 -1 -10 5 0 6 -4 8 -10 5 -5 -3 -10 -2 -10 4 0
5 -10 8 -22 6 -12 -3 -27 0 -35 6 -7 7 -13 8 -13 4 0 -5 -8 -1 -18 8 -10 10
-22 14 -27 10 -4 -5 -5 0 -2 10 4 11 1 17 -9 17 -8 0 -13 -4 -10 -9 6 -9 -23
-5 -54 6 -8 4 -21 5 -27 4 -7 -1 -13 3 -13 9 0 6 -4 8 -10 5 -5 -3 -10 1 -10
10 0 9 -5 13 -10 10 -6 -4 -7 -12 -4 -18 4 -7 -4 0 -19 16 -28 29 -37 33 -37
17 0 -5 7 -10 15 -10 8 0 15 -5 15 -10 0 -7 -6 -7 -19 -1 -10 6 -21 7 -25 4
-3 -3 -6 -1 -6 6 0 7 -10 10 -24 7 -26 -5 -52 16 -42 33 3 5 -1 12 -10 15 -21
8 -26 8 -20 -3 3 -5 -1 -11 -9 -15 -8 -3 -17 0 -21 6 -5 7 -2 8 7 3 11 -6 12
-5 1 6 -10 11 -16 11 -34 0 -19 -11 -20 -11 -14 4 5 14 2 17 -19 13 -14 -3
-28 -1 -32 5 -4 6 -1 7 7 2 8 -5 11 -3 9 4 -3 7 -8 12 -13 11 -5 -1 -13 4 -17
12 -7 10 -9 9 -9 -4 0 -10 -5 -18 -11 -18 -5 0 -7 6 -3 13 5 7 2 7 -10 -2 -9
-8 -16 -10 -15 -5 1 5 1 16 0 23 -1 12 -4 12 -13 3 -15 -15 -28 -15 -28 -1 0
5 4 8 9 5 5 -3 11 1 15 9 6 18 2 19 -26 4 -18 -10 -20 -9 -15 5 4 9 2 16 -3
16 -6 0 -10 -6 -10 -12 0 -10 -2 -10 -8 -1 -4 6 -20 14 -36 17 -15 3 -33 10
-40 15 -9 7 -16 7 -25 -2 -10 -9 -15 -9 -24 4 -7 9 -19 18 -27 22 -10 4 -11 6
-2 6 21 1 3 21 -19 21 -10 0 -19 6 -19 13 0 6 -5 4 -11 -6 -6 -9 -15 -15 -20
-12 -5 4 -7 10 -4 15 3 5 1 12 -5 15 -6 4 -9 1 -8 -6 2 -6 -3 -14 -10 -16 -7
-3 -10 1 -6 10 3 8 0 18 -7 23 -8 4 -10 3 -5 -4 4 -7 2 -12 -3 -12 -18 0 -26
5 -24 12 4 12 -12 9 -25 -4 -9 -9 -13 -7 -18 6 -5 12 -10 14 -20 5 -10 -8 -12
-6 -9 10 2 12 1 21 -3 21 -10 -1 -42 -26 -39 -31 1 -2 -4 2 -11 10 -10 13 -12
13 -13 0 -1 -8 -4 -3 -8 11 -6 20 -13 25 -35 23 -23 -2 -26 1 -21 20 5 18 4
19 -5 5 -15 -24 -57 -16 -87 18 -17 18 -24 22 -20 11 11 -29 -3 -41 -20 -18
-8 12 -21 21 -29 21 -11 0 -14 6 -9 23 5 17 4 19 -4 7 -8 -11 -11 -12 -11 -2
0 10 -5 9 -17 -3 -16 -16 -17 -16 -29 0 -11 15 -13 15 -17 -2 -4 -17 -5 -17
-6 0 -1 12 -5 16 -13 11 -10 -6 -10 -4 0 8 10 13 10 18 1 24 -7 4 -9 3 -6 -2
3 -6 -3 -15 -14 -22 -10 -7 -19 -9 -18 -5 3 20 -3 30 -18 30 -10 0 -20 -4 -23
-8 -3 -5 -11 0 -17 10 -9 14 -8 18 3 18 7 0 10 -5 7 -10 -3 -6 -1 -7 6 -3 6 4
9 12 5 17 -3 5 -9 7 -14 4 -5 -3 -11 -1 -15 5 -3 5 -12 10 -18 10 -8 0 -8 -3
2 -9 10 -7 11 -10 1 -16 -8 -5 -18 -2 -24 7 -6 8 -17 13 -25 10 -8 -3 -11 0
-7 6 4 6 -1 8 -13 5 -10 -3 -22 1 -26 8 -5 8 -4 10 3 5 7 -4 12 -3 12 2 0 5
-14 9 -30 10 -17 0 -28 -4 -24 -9 3 -5 10 -7 15 -4 5 4 9 1 9 -4 0 -6 -9 -11
-19 -11 -15 0 -19 5 -16 21 6 30 -4 42 -21 28 -15 -12 -19 0 -6 17 4 5 -1 1
-10 -9 -10 -11 -19 -14 -23 -7 -3 6 -12 7 -18 3 -7 -4 -6 0 2 10 12 15 10 18
-10 26 -14 5 -31 5 -41 -1 -14 -6 -18 -5 -18 7 0 10 -5 13 -12 9 -8 -5 -9 0
-6 14 4 12 2 20 -3 17 -5 -3 -16 3 -26 14 -11 14 -19 17 -24 9 -4 -6 -21 -13
-39 -15 -19 -2 -29 1 -25 7 4 6 9 9 13 6 4 -2 16 1 27 5 19 9 19 9 -1 5 -25
-4 -54 23 -54 51 0 3 -10 -2 -22 -13 -12 -10 -18 -14 -15 -7 4 6 3 14 -3 18
-6 4 -8 11 -5 16 4 5 1 9 -4 9 -6 0 -11 -6 -11 -12 0 -9 -3 -9 -9 1 -5 8 -17
12 -27 9 -15 -4 -19 1 -21 25 -3 35 -53 80 -53 47 0 -5 6 -10 14 -10 8 0 18
-5 22 -11 4 -8 -1 -9 -17 -3 -13 4 -31 8 -40 8 -14 0 -15 5 -8 26 9 24 8 24
-6 6 -8 -11 -15 -24 -15 -29 0 -4 -5 -5 -11 -1 -8 4 -7 9 2 15 12 7 12 10 0
21 -12 11 -13 10 -6 -2 6 -12 5 -13 -6 -2 -10 9 -1891 12 -9336 12 l-9323 0 0
-17750z m19000 17540 c0 -5 -7 -10 -16 -10 -8 0 -12 5 -9 10 3 6 10 10 16 10
5 0 9 -4 9 -10z m767 -322 c-3 -8 -6 -5 -6 6 -1 11 2 17 5 13 3 -3 4 -12 1
-19z m2868 -917 c-3 -6 -11 -11 -17 -11 -6 0 -6 6 2 15 14 17 26 13 15 -4z
m1815 -507 c0 -8 -19 -13 -24 -6 -3 5 1 9 9 9 8 0 15 -2 15 -3z m145 -33 c3
-6 -3 -9 -14 -8 -11 0 -17 5 -15 9 7 11 22 10 29 -1z m223 -57 c5 3 9 -1 9 -9
0 -19 -12 -19 -31 1 -20 19 -21 31 -1 14 8 -6 18 -9 23 -6z m29 -16 c-3 -8 -6
-5 -6 6 -1 11 2 17 5 13 3 -3 4 -12 1 -19z m1713 -454 c0 -8 -5 -12 -10 -9 -6
4 -8 11 -5 16 9 14 15 11 15 -7z m1310 -315 c0 -5 -4 -7 -10 -4 -5 3 -10 1
-10 -6 0 -7 -3 -10 -6 -6 -8 7 4 27 17 27 5 0 9 -5 9 -11z m-40 -9 c0 -5 -7
-7 -15 -4 -8 4 -15 8 -15 10 0 2 7 4 15 4 8 0 15 -4 15 -10z m280 -54 c0 -2
-7 -7 -16 -10 -8 -3 -12 -2 -9 4 6 10 25 14 25 6z m234 -62 c3 -8 2 -12 -4 -9
-6 3 -10 10 -10 16 0 14 7 11 14 -7z m701 -124 c3 -5 1 -10 -4 -10 -6 0 -11 5
-11 10 0 6 2 10 4 10 3 0 8 -4 11 -10z m590 -120 c3 -6 -1 -7 -9 -4 -18 7 -21
14 -7 14 6 0 13 -4 16 -10z m262 -92 c-3 -8 -6 -5 -6 6 -1 11 2 17 5 13 3 -3
4 -12 1 -19z m793 -135 c0 -14 -2 -15 -9 -4 -5 8 -14 10 -21 6 -9 -5 -11 -4
-6 3 11 18 36 14 36 -5z m414 -93 c-6 -6 -10 -2 -11 12 -2 16 1 18 10 9 7 -7
8 -14 1 -21z m103 -16 c-3 -3 -12 -4 -19 -1 -8 3 -5 6 6 6 11 1 17 -2 13 -5z
m383 -74 c0 -5 -4 -10 -10 -10 -5 0 -10 5 -10 10 0 6 5 10 10 10 6 0 10 -4 10
-10z m1426 -272 c5 -7 3 -8 -6 -3 -10 6 -12 4 -6 -11 5 -14 4 -16 -5 -7 -6 6
-8 16 -5 22 9 14 13 14 22 -1z m300 -53 c1 -8 -2 -13 -7 -9 -5 3 -9 12 -9 21
0 19 13 9 16 -12z m182 -59 c-7 -8 -15 -12 -17 -11 -5 6 10 25 20 25 5 0 4 -6
-3 -14z m482 -126 c0 -5 -2 -10 -4 -10 -3 0 -8 5 -11 10 -3 6 -1 10 4 10 6 0
11 -4 11 -10z m260 -34 c0 -2 -7 -7 -16 -10 -8 -3 -12 -2 -9 4 6 10 25 14 25
6z m940 -246 c0 -5 -4 -10 -10 -10 -5 0 -10 5 -10 10 0 6 5 10 10 10 6 0 10
-4 10 -10z m329 -141 c11 -19 11 -21 -3 -16 -9 4 -16 2 -16 -3 0 -6 5 -10 11
-10 5 0 7 -5 4 -10 -12 -20 -36 10 -25 30 5 9 6 20 3 24 -3 3 -2 6 3 6 5 0 15
-10 23 -21z m27 -49 c0 -11 -4 -20 -8 -20 -4 0 -8 9 -8 20 0 11 4 20 8 20 4 0
8 -9 8 -20z m52 -25 c-3 -3 -9 2 -12 12 -6 14 -5 15 5 6 7 -7 10 -15 7 -18z
m49 -11 c-9 -9 -28 6 -21 18 4 6 10 6 17 -1 6 -6 8 -13 4 -17z m87 -60 c3 -8
2 -12 -4 -9 -6 3 -10 10 -10 16 0 14 7 11 14 -7z m106 -48 c0 -3 -4 -8 -10
-11 -5 -3 -10 -1 -10 4 0 6 5 11 10 11 6 0 10 -2 10 -4z m418 -201 c-3 -3 -9
2 -12 12 -6 14 -5 15 5 6 7 -7 10 -15 7 -18z m232 -159 c0 -2 -7 -7 -16 -10
-8 -3 -12 -2 -9 4 6 10 25 14 25 6z m755 -478 c6 -4 2 -8 -7 -8 -10 0 -18 7
-18 17 0 9 3 12 8 7 4 -5 12 -12 17 -16z m355 -198 c0 -5 -5 -10 -11 -10 -5 0
-7 5 -4 10 3 6 8 10 11 10 2 0 4 -4 4 -10z m530 -406 c0 -8 -19 -13 -24 -6 -3
5 1 9 9 9 8 0 15 -2 15 -3z m565 -504 c3 -5 1 -10 -4 -10 -6 0 -11 5 -11 10 0
6 2 10 4 10 3 0 8 -4 11 -10z m1115 -1003 c0 -2 -10 -12 -22 -23 -14 -12 -18
-13 -10 -3 6 9 9 19 5 22 -3 4 1 7 10 7 10 0 17 -2 17 -3z m664 -732 c3 -8 3
-15 0 -15 -3 0 -12 7 -20 15 -13 13 -13 15 -1 15 8 0 17 -7 21 -15z m119 -142
c-7 -2 -19 -2 -25 0 -7 3 -2 5 12 5 14 0 19 -2 13 -5z m1297 -1955 c0 -6 -6
-5 -15 2 -8 7 -15 14 -15 16 0 2 7 1 15 -2 8 -4 15 -11 15 -16z m293 -953 c-3
-9 -8 -14 -10 -11 -3 3 -2 9 2 15 9 16 15 13 8 -4z m47 -114 c0 -6 -4 -12 -8
-15 -5 -3 -9 1 -9 9 0 8 4 15 9 15 4 0 8 -4 8 -9z m15 -31 c3 -5 1 -10 -4 -10
-6 0 -11 5 -11 10 0 6 2 10 4 10 3 0 8 -4 11 -10z m122 -392 c-3 -7 -5 -2 -5
12 0 14 2 19 5 13 2 -7 2 -19 0 -25z m108 -348 c3 -5 1 -10 -4 -10 -6 0 -11 5
-11 10 0 6 2 10 4 10 3 0 8 -4 11 -10z m90 -279 c-3 -6 -11 -11 -16 -11 -5 0
-4 6 3 14 14 16 24 13 13 -3z m60 -201 c3 -5 1 -10 -4 -10 -6 0 -11 5 -11 10
0 6 2 10 4 10 3 0 8 -4 11 -10z m60 -179 c3 -5 1 -12 -4 -15 -5 -3 -11 1 -15
9 -6 16 9 21 19 6z m98 -417 c1 -16 7 -33 12 -37 6 -5 4 -7 -5 -5 -8 3 -15 16
-15 30 -1 14 -5 34 -9 44 -5 14 -4 16 4 8 6 -6 12 -24 13 -40z m26 -84 c5 -17
6 -28 1 -25 -4 3 -10 0 -12 -6 -2 -7 -4 5 -5 25 -1 44 2 45 16 6z m320 -1466
c-15 -18 -22 -13 -13 10 3 9 10 13 16 10 5 -3 4 -12 -3 -20z m21 -118 c0 -2
-7 -6 -15 -10 -8 -3 -15 -1 -15 4 0 6 7 10 15 10 8 0 15 -2 15 -4z m85 -688
c6 -4 2 -8 -7 -8 -10 0 -18 7 -18 17 0 9 3 12 8 7 4 -5 12 -12 17 -16z m-10
-676 c-8 -8 -25 10 -19 20 4 6 9 5 15 -3 4 -7 6 -15 4 -17z m28 -19 c-7 -2
-21 -2 -30 0 -10 3 -4 5 12 5 17 0 24 -2 18 -5z m-13 -17 c0 -2 -7 -9 -15 -16
-13 -11 -14 -10 -9 4 5 14 24 23 24 12z m15 -744 c-8 -2 -12 -10 -9 -20 5 -14
4 -15 -5 -2 -6 9 -6 19 -1 24 4 4 6 16 3 25 -4 11 -1 10 10 -4 13 -16 13 -21
2 -23z m-21 -457 c-4 -8 -10 -12 -15 -9 -11 6 -2 24 11 24 5 0 7 -7 4 -15z
m-34 -447 c0 -6 -6 -5 -15 2 -8 7 -15 14 -15 16 0 2 7 1 15 -2 8 -4 15 -11 15
-16z m10 -42 c14 -18 14 -19 -8 -7 -12 7 -20 17 -16 22 3 6 7 9 8 7 1 -2 8
-12 16 -22z m15 -106 c3 -5 -1 -10 -10 -10 -9 0 -13 5 -10 10 3 6 8 10 10 10
2 0 7 -4 10 -10z m-71 -504 c-7 -28 -21 -35 -21 -11 0 8 4 15 9 15 4 0 8 8 8
17 0 9 2 14 5 11 4 -3 3 -17 -1 -32z m-241 -1479 c3 -8 -1 -14 -9 -14 -15 0
-18 9 -7 20 9 9 10 9 16 -6z m-18 -87 c3 -5 1 -10 -4 -10 -6 0 -11 5 -11 10 0
6 2 10 4 10 3 0 8 -4 11 -10z m-26 -133 c0 -9 -2 -8 -6 1 -2 6 -10 9 -15 6 -7
-4 -8 -2 -4 5 9 13 26 5 25 -12z m-64 -277 c3 -5 1 -10 -4 -10 -6 0 -11 5 -11
10 0 6 2 10 4 10 3 0 8 -4 11 -10z m-39 -274 c0 -14 -6 -22 -13 -19 -9 4 -9 9
0 24 15 24 15 24 13 -5z m-62 -184 c3 -5 -1 -9 -9 -9 -8 0 -12 4 -9 9 3 4 7 8
9 8 2 0 6 -4 9 -8z m-14 -32 c0 -5 -5 -10 -11 -10 -5 0 -7 5 -4 10 3 6 8 10
11 10 2 0 4 -4 4 -10z m-10 -70 c0 -5 -2 -10 -4 -10 -3 0 -8 5 -11 10 -3 6 -1
10 4 10 6 0 11 -4 11 -10z m-85 -180 c-4 -13 -2 -20 5 -18 7 2 15 -3 17 -10 4
-11 1 -12 -15 -3 -27 14 -35 14 -26 -1 5 -7 3 -8 -5 -4 -9 6 -9 12 3 25 9 10
13 21 9 24 -3 4 -1 7 6 7 8 0 10 -7 6 -20z m-45 -146 c0 -8 -5 -12 -10 -9 -6
4 -8 11 -5 16 9 14 15 11 15 -7z m-125 -314 c3 -5 1 -10 -4 -10 -6 0 -11 5
-11 10 0 6 2 10 4 10 3 0 8 -4 11 -10z m-375 -979 c0 -5 -6 -14 -14 -20 -12
-10 -13 -8 -9 8 5 21 23 30 23 12z m-74 -153 c3 -4 -1 -5 -10 -4 -8 1 -18 5
-22 8 -3 4 1 5 10 4 8 -1 18 -5 22 -8z m-466 -872 c0 -8 -7 -16 -15 -20 -12
-4 -13 -2 -2 14 14 24 17 25 17 6z m-480 -730 c0 -3 -4 -8 -10 -11 -5 -3 -10
-1 -10 4 0 6 5 11 10 11 6 0 10 -2 10 -4z m-1350 -1566 c0 -5 -5 -10 -11 -10
-5 0 -7 5 -4 10 3 6 8 10 11 10 2 0 4 -4 4 -10z m-181 -225 c-7 -6 -13 -5 -19
5 -12 20 -2 32 15 17 8 -8 10 -16 4 -22z m-562 -487 c-3 -8 -6 -5 -6 6 -1 11
2 17 5 13 3 -3 4 -12 1 -19z m-300 -309 c-25 -32 -34 -35 -34 -14 0 8 4 12 8
10 3 -3 9 3 11 13 3 10 12 19 21 19 13 0 12 -5 -6 -28z m-182 -119 c-3 -5 -14
-10 -23 -9 -14 0 -13 2 3 9 27 11 27 11 20 0z m-81 -38 c3 -5 -1 -9 -9 -9 -8
0 -12 4 -9 9 3 4 7 8 9 8 2 0 6 -4 9 -8z m-164 -132 c0 -5 -8 -10 -17 -10 -15
0 -16 2 -3 10 19 12 20 12 20 0z m-210 -140 c0 -5 -2 -10 -4 -10 -3 0 -8 5
-11 10 -3 6 -1 10 4 10 6 0 11 -4 11 -10z m-1200 -864 c0 -2 -7 -7 -16 -10 -8
-3 -12 -2 -9 4 6 10 25 14 25 6z m-120 -70 c0 -19 -31 -29 -44 -15 -8 9 -8 10
1 5 6 -3 18 0 25 8 16 19 18 19 18 2z m-125 -86 c3 -5 1 -10 -4 -10 -6 0 -11
5 -11 10 0 6 2 10 4 10 3 0 8 -4 11 -10z m-315 -150 c0 -5 -2 -10 -4 -10 -3 0
-8 5 -11 10 -3 6 -1 10 4 10 6 0 11 -4 11 -10z m-90 -85 c0 -8 -2 -15 -4 -15
-2 0 -6 7 -10 15 -3 8 -1 15 4 15 6 0 10 -7 10 -15z m-1400 -831 c0 -8 -4 -12
-10 -9 -5 3 -10 10 -10 16 0 5 5 9 10 9 6 0 10 -7 10 -16z m-325 -104 c3 -6
-1 -7 -9 -4 -18 7 -21 14 -7 14 6 0 13 -4 16 -10z m55 -10 c0 -5 -2 -10 -4
-10 -3 0 -8 5 -11 10 -3 6 -1 10 4 10 6 0 11 -4 11 -10z m-110 -30 c0 -5 -2
-10 -4 -10 -3 0 -8 5 -11 10 -3 6 -1 10 4 10 6 0 11 -4 11 -10z m-105 -70 c3
-5 1 -10 -4 -10 -6 0 -11 5 -11 10 0 6 2 10 4 10 3 0 8 -4 11 -10z m-324 -183
c-10 -9 -11 -8 -5 6 3 10 9 15 12 12 3 -3 0 -11 -7 -18z m-457 -188 c-4 -8 1
-9 17 -4 23 7 23 7 4 -8 -14 -11 -22 -12 -27 -4 -7 11 -2 27 8 27 3 0 2 -5 -2
-11z m-54 -13 c0 -2 -8 -10 -17 -17 -16 -13 -17 -12 -4 4 13 16 21 21 21 13z
m-215 -76 c3 -5 1 -10 -4 -10 -6 0 -11 5 -11 10 0 6 2 10 4 10 3 0 8 -4 11
-10z m-45 -51 c0 -4 -6 -9 -13 -12 -8 -3 -14 0 -14 7 0 7 6 13 14 13 7 0 13
-4 13 -8z m-80 -19 c0 -5 -4 -10 -10 -10 -5 0 -10 5 -10 10 0 6 5 10 10 10 6
0 10 -4 10 -10z m-121 -54 c-2 -2 -15 -9 -29 -15 -24 -11 -24 -11 -6 3 16 13
49 24 35 12z m-249 -151 c0 -2 -7 -5 -15 -9 -9 -3 -15 0 -15 9 0 9 6 12 15 9
8 -4 15 -7 15 -9z m-475 -205 c3 -6 -1 -7 -9 -4 -18 7 -21 14 -7 14 6 0 13 -4
16 -10z m-85 -35 c0 -9 -6 -12 -16 -8 -13 5 -13 7 -2 14 17 11 18 11 18 -6z
m-67 -15 c-5 -19 -23 -29 -23 -12 0 7 20 32 26 32 1 0 0 -9 -3 -20z m-633
-262 c0 -5 -4 -8 -10 -8 -5 0 -10 10 -10 23 0 18 2 19 10 7 5 -8 10 -18 10
-22z m21 9 c-10 -9 -11 -8 -5 6 3 10 9 15 12 12 3 -3 0 -11 -7 -18z m-261
-128 c0 -5 -4 -8 -9 -4 -5 3 -12 1 -16 -5 -4 -6 -11 -8 -16 -4 -5 3 -7 10 -4
15 8 13 45 11 45 -2z m-760 -329 c0 -5 -2 -10 -4 -10 -3 0 -8 5 -11 10 -3 6
-1 10 4 10 6 0 11 -4 11 -10z m-140 -44 c0 -3 -4 -8 -10 -11 -5 -3 -10 -1 -10
4 0 6 5 11 10 11 6 0 10 -2 10 -4z m-882 -304 c2 -7 -1 -12 -8 -12 -6 0 -9 4
-6 9 4 5 1 12 -4 14 -6 3 -5 4 2 3 6 -1 14 -8 16 -14z m-343 -132 c-8 -14 8
-13 22 1 8 8 14 5 23 -11 10 -20 10 -21 -6 -12 -9 5 -25 7 -35 5 -19 -5 -26 7
-12 20 10 10 15 8 8 -3z m-245 -75 c0 -12 -19 -12 -23 0 -4 9 -1 12 9 8 7 -3
14 -7 14 -8z m77 0 c0 -8 -4 -12 -9 -9 -4 3 -8 9 -8 15 0 5 4 9 8 9 5 0 9 -7
9 -15z m-457 -105 c0 -5 -4 -10 -10 -10 -5 0 -10 5 -10 10 0 6 5 10 10 10 6 0
10 -4 10 -10z m-512 -125 c-3 -3 -9 2 -12 12 -6 14 -5 15 5 6 7 -7 10 -15 7
-18z m-328 -145 c0 -5 -5 -10 -11 -10 -5 0 -7 5 -4 10 3 6 8 10 11 10 2 0 4
-4 4 -10z m-170 -66 c0 -8 -19 -13 -24 -6 -3 5 1 9 9 9 8 0 15 -2 15 -3z
m-152 -59 c-3 -3 -9 2 -12 12 -6 14 -5 15 5 6 7 -7 10 -15 7 -18z m-158 -36
c-7 -11 -14 -18 -17 -15 -3 3 0 12 7 21 18 21 23 19 10 -6z m-543 -171 c-3 -8
-6 -5 -6 6 -1 11 2 17 5 13 3 -3 4 -12 1 -19z m-85 -27 c-4 -10 -7 -11 -10 -3
-2 7 -8 10 -13 6 -5 -3 -9 -1 -9 5 0 5 9 9 19 8 12 -1 17 -6 13 -16z m-365
-107 c-3 -3 -12 -4 -19 -1 -8 3 -5 6 6 6 11 1 17 -2 13 -5z m-437 -154 c12 -8
11 -10 -7 -10 -13 0 -23 5 -23 10 0 13 11 13 30 0z m-1470 -620 c0 -5 -5 -10
-11 -10 -5 0 -7 5 -4 10 3 6 8 10 11 10 2 0 4 -4 4 -10z m-165 -60 c3 -5 2
-10 -4 -10 -5 0 -13 5 -16 10 -3 6 -2 10 4 10 5 0 13 -4 16 -10z m-855 -380
c0 -5 -4 -10 -10 -10 -5 0 -10 5 -10 10 0 6 5 10 10 10 6 0 10 -4 10 -10z
m-820 -374 c0 -3 -4 -8 -10 -11 -5 -3 -10 -1 -10 4 0 6 5 11 10 11 6 0 10 -2
10 -4z m-830 -480 c0 -2 -7 -7 -16 -10 -8 -3 -12 -2 -9 4 6 10 25 14 25 6z
m-80 -41 c-7 -8 -17 -15 -22 -15 -11 0 14 29 26 30 5 0 3 -7 -4 -15z m52 -7
c-7 -7 -12 -8 -12 -2 0 14 12 26 19 19 2 -3 -1 -11 -7 -17z"/>
<path d="M18790 35426 c0 -2 7 -7 16 -10 8 -3 12 -2 9 4 -6 10 -25 14 -25 6z"/>
<path d="M18950 35350 c-9 -6 -10 -10 -3 -10 6 0 15 5 18 10 8 12 4 12 -15 0z"/>
<path d="M19800 34990 c-12 -7 -10 -9 7 -7 12 0 19 5 17 9 -6 10 -6 10 -24 -2z"/>
<path d="M20107 34883 c-10 -9 -9 -23 1 -23 5 0 9 7 9 15 0 17 -1 18 -10 8z"/>
<path d="M20730 34660 c0 -5 5 -10 11 -10 5 0 7 5 4 10 -3 6 -8 10 -11 10 -2
0 -4 -4 -4 -10z"/>
<path d="M22005 34250 c-8 -13 15 -24 27 -12 6 6 4 11 -6 15 -8 3 -18 2 -21
-3z"/>
<path d="M22346 34138 c3 -4 11 -5 19 -1 21 7 19 12 -4 10 -11 0 -18 -5 -15
-9z"/>
<path d="M23496 33813 c-6 -14 -5 -15 5 -6 7 7 10 15 7 18 -3 3 -9 -2 -12 -12z"/>
<path d="M24290 33609 c0 -5 5 -9 10 -9 6 0 12 0 15 0 14 0 8 13 -7 16 -10 1
-18 -2 -18 -7z"/>
<path d="M25440 33300 c0 -5 5 -10 11 -10 5 0 7 5 4 10 -3 6 -8 10 -11 10 -2
0 -4 -4 -4 -10z"/>
<path d="M26645 32971 c-3 -5 -1 -12 5 -16 5 -3 10 1 10 9 0 18 -6 21 -15 7z"/>
<path d="M27040 32871 c0 -6 5 -13 10 -16 6 -3 10 1 10 9 0 9 -4 16 -10 16 -5
0 -10 -4 -10 -9z"/>
<path d="M27442 32770 c0 -14 2 -19 5 -12 2 6 2 18 0 25 -3 6 -5 1 -5 -13z"/>
<path d="M27522 32757 c-8 -10 -6 -13 7 -13 10 0 18 6 18 13 0 7 -4 13 -7 13
-4 0 -12 -6 -18 -13z"/>
<path d="M27591 32741 c-8 -6 -9 -11 -3 -15 6 -3 14 -1 17 5 9 14 2 20 -14 10z"/>
<path d="M27657 32730 c3 -11 9 -17 15 -14 5 3 4 12 -3 20 -16 19 -18 18 -12
-6z"/>
<path d="M27695 32730 c3 -5 8 -10 11 -10 2 0 4 5 4 10 0 6 -5 10 -11 10 -5 0
-7 -4 -4 -10z"/>
<path d="M27786 32698 c3 -4 11 -5 19 -1 21 7 19 12 -4 10 -11 0 -18 -5 -15
-9z"/>
<path d="M27896 32692 c-3 -5 1 -9 9 -9 8 0 12 4 9 9 -3 4 -7 8 -9 8 -2 0 -6
-4 -9 -8z"/>
<path d="M28055 32630 c-16 -7 -17 -9 -3 -9 9 -1 20 4 23 9 7 11 7 11 -20 0z"/>
<path d="M28270 32594 c0 -2 9 -8 20 -14 11 -6 20 -7 20 -2 0 6 -9 12 -20 15
-11 3 -20 3 -20 1z"/>
<path d="M28385 32560 c-3 -6 1 -7 9 -4 18 7 21 14 7 14 -6 0 -13 -4 -16 -10z"/>
<path d="M28616 32495 c4 -8 8 -15 10 -15 2 0 4 7 4 15 0 8 -4 15 -10 15 -5 0
-7 -7 -4 -15z"/>
<path d="M29680 32270 c0 -5 5 -10 10 -10 6 0 10 5 10 10 0 6 -4 10 -10 10 -5
0 -10 -4 -10 -10z"/>
<path d="M29956 32215 c-3 -8 -1 -15 4 -15 13 0 22 18 11 24 -5 3 -11 -1 -15
-9z"/>
<path d="M30246 32168 c3 -5 10 -6 15 -3 5 4 9 1 9 -5 0 -6 5 -8 10 -5 15 9 2
24 -20 22 -10 -1 -16 -5 -14 -9z"/>
<path d="M30447 32134 c6 -15 23 -19 23 -5 0 5 -7 11 -14 14 -10 4 -13 1 -9
-9z"/>
<path d="M30515 32119 c-11 -17 1 -21 15 -4 8 9 8 15 2 15 -6 0 -14 -5 -17
-11z"/>
<path d="M31895 31861 c-3 -6 -13 -7 -23 -4 -9 3 -14 3 -11 -1 11 -11 59 -17
59 -7 0 15 -18 23 -25 12z"/>
<path d="M32221 31794 c0 -11 3 -14 6 -6 3 7 2 16 -1 19 -3 4 -6 -2 -5 -13z"/>
<path d="M32818 31673 c7 -3 16 -2 19 1 4 3 -2 6 -13 5 -11 0 -14 -3 -6 -6z"/>
<path d="M33557 31519 c7 -7 15 -10 18 -7 3 3 -2 9 -12 12 -14 6 -15 5 -6 -5z"/>
<path d="M33700 31460 c6 -11 15 -18 21 -14 6 4 6 11 -2 20 -17 21 -31 17 -19
-6z"/>
<path d="M34027 31425 c3 -8 9 -12 14 -9 12 7 11 11 -5 17 -10 4 -13 1 -9 -8z"/>
<path d="M34050 31405 c-7 -9 -8 -15 -2 -15 5 0 12 7 16 15 3 8 4 15 2 15 -2
0 -9 -7 -16 -15z"/>
<path d="M34075 31399 c-4 -6 -5 -12 -2 -15 2 -3 7 2 10 11 7 17 1 20 -8 4z"/>
<path d="M34150 31391 c0 -4 -11 -6 -25 -3 -16 3 -25 0 -25 -9 0 -7 3 -9 7 -6
3 4 13 1 21 -6 12 -9 16 -9 19 1 3 6 9 10 14 7 5 -4 6 1 3 9 -7 17 -14 21 -14
7z"/>
<path d="M34345 31330 c3 -5 8 -10 11 -10 2 0 4 5 4 10 0 6 -5 10 -11 10 -5 0
-7 -4 -4 -10z"/>
<path d="M34820 31219 c0 -7 30 -20 40 -17 3 1 15 -4 28 -11 17 -9 27 -9 36
-2 7 6 17 7 21 3 5 -4 5 -1 1 6 -6 10 -11 10 -21 2 -10 -9 -20 -8 -37 1 -13 7
-26 12 -30 11 -5 -1 -8 2 -8 6 0 5 -7 9 -15 9 -8 0 -15 -4 -15 -8z"/>
<path d="M35450 30989 c0 -5 5 -7 10 -4 6 3 10 8 10 11 0 2 -4 4 -10 4 -5 0
-10 -5 -10 -11z"/>
<path d="M36088 30663 c7 -3 16 -2 19 1 4 3 -2 6 -13 5 -11 0 -14 -3 -6 -6z"/>
<path d="M37150 30037 c0 -10 8 -17 18 -17 9 0 13 4 7 8 -5 4 -13 11 -17 16
-5 5 -8 2 -8 -7z"/>
<path d="M37123 30015 c0 -8 4 -12 9 -9 5 3 6 10 3 15 -9 13 -12 11 -12 -6z"/>
<path d="M38231 29196 c10 -9 69 -36 69 -32 0 6 -55 36 -66 36 -4 0 -5 -2 -3
-4z"/>
<path d="M38777 28749 c7 -7 15 -10 18 -7 3 3 -2 9 -12 12 -14 6 -15 5 -6 -5z"/>
<path d="M39946 27628 c3 -5 10 -6 15 -3 13 9 11 12 -6 12 -8 0 -12 -4 -9 -9z"/>
<path d="M40590 26920 c0 -5 5 -10 11 -10 5 0 7 -6 3 -12 -5 -10 -4 -10 6 -1
7 6 9 16 6 22 -9 14 -26 14 -26 1z"/>
<path d="M40946 26513 c-6 -14 -5 -15 5 -6 7 7 10 15 7 18 -3 3 -9 -2 -12 -12z"/>
<path d="M40957 26493 c-8 -8 11 -33 25 -33 7 0 6 5 -1 13 -6 8 -8 17 -4 20 3
4 2 7 -4 7 -5 0 -13 -3 -16 -7z"/>
<path d="M41120 26249 c0 -5 5 -7 10 -4 6 3 10 8 10 11 0 2 -4 4 -10 4 -5 0
-10 -5 -10 -11z"/>
<path d="M41910 24871 c0 -6 5 -13 10 -16 6 -3 10 1 10 9 0 9 -4 16 -10 16 -5
0 -10 -4 -10 -9z"/>
<path d="M41951 24704 c0 -11 3 -14 6 -6 3 7 2 16 -1 19 -3 4 -6 -2 -5 -13z"/>
<path d="M41987 24616 c-4 -10 -1 -13 8 -9 8 3 12 9 9 14 -7 12 -11 11 -17 -5z"/>
<path d="M42135 24221 c-3 -5 -1 -12 4 -15 5 -3 11 1 15 9 6 16 -9 21 -19 6z"/>
<path d="M42676 22567 c3 -10 9 -15 12 -12 3 3 0 11 -7 18 -10 9 -11 8 -5 -6z"/>
<path d="M42883 21675 c0 -8 4 -15 9 -15 4 0 8 4 8 9 0 6 -4 12 -8 15 -5 3 -9
-1 -9 -9z"/>
<path d="M43205 20050 c3 -5 8 -10 11 -10 2 0 4 5 4 10 0 6 -5 10 -11 10 -5 0
-7 -4 -4 -10z"/>
<path d="M43234 19420 c2 -16 20 -14 24 2 3 10 2 10 -6 -1 -7 -9 -11 -10 -15
-2 -4 7 -5 8 -3 1z"/>
<path d="M43230 19269 c0 -5 5 -7 10 -4 6 3 10 8 10 11 0 2 -4 4 -10 4 -5 0
-10 -5 -10 -11z"/>
<path d="M43220 18959 c0 -5 5 -7 10 -4 6 3 10 8 10 11 0 2 -4 4 -10 4 -5 0
-10 -5 -10 -11z"/>
<path d="M43275 18329 c-4 -6 -5 -12 -2 -15 2 -3 7 2 10 11 7 17 1 20 -8 4z"/>
<path d="M43275 18291 c-3 -5 -2 -12 3 -15 5 -3 9 1 9 9 0 17 -3 19 -12 6z"/>
<path d="M43216 17675 c4 -8 8 -15 10 -15 2 0 4 7 4 15 0 8 -4 15 -10 15 -5 0
-7 -7 -4 -15z"/>
<path d="M43216 17581 c-4 -7 -5 -15 -2 -18 9 -9 19 4 14 18 -4 11 -6 11 -12
0z"/>
<path d="M43187 17513 c-2 -5 0 -21 4 -38 l7 -30 1 28 c1 20 5 26 14 21 8 -5
8 -2 -2 9 -15 19 -18 20 -24 10z"/>
<path d="M43205 17009 c-4 -6 -4 -13 -1 -16 3 -4 6 -1 6 6 0 7 5 9 12 5 7 -4
8 -3 4 4 -9 15 -13 15 -21 1z"/>
<path d="M43044 15838 c-4 -7 -3 -8 4 -4 7 4 12 2 12 -3 0 -6 4 -11 8 -11 5 0
9 7 9 15 0 18 -23 20 -33 3z"/>
<path d="M42956 15362 c-3 -5 1 -9 9 -9 8 0 12 4 9 9 -3 4 -7 8 -9 8 -2 0 -6
-4 -9 -8z"/>
<path d="M42955 15330 c3 -5 8 -10 11 -10 2 0 4 5 4 10 0 6 -5 10 -11 10 -5 0
-7 -4 -4 -10z"/>
<path d="M42800 14600 c-9 -6 -10 -10 -3 -10 6 0 15 5 18 10 8 12 4 12 -15 0z"/>
<path d="M42793 14495 c0 -8 4 -12 9 -9 5 3 6 10 3 15 -9 13 -12 11 -12 -6z"/>
<path d="M42629 14003 c-13 -16 -12 -17 4 -4 16 13 21 21 13 21 -2 0 -10 -8
-17 -17z"/>
<path d="M42575 13920 c-16 -7 -17 -9 -3 -9 9 -1 20 4 23 9 7 11 7 11 -20 0z"/>
<path d="M42500 13740 c0 -5 5 -10 10 -10 6 0 10 5 10 10 0 6 -4 10 -10 10 -5
0 -10 -4 -10 -10z"/>
<path d="M42340 13335 c-8 -9 -8 -15 -2 -15 12 0 26 19 19 26 -2 2 -10 -2 -17
-11z"/>
<path d="M42285 13180 c3 -5 11 -10 16 -10 6 0 7 5 4 10 -3 6 -11 10 -16 10
-6 0 -7 -4 -4 -10z"/>
<path d="M42234 13031 c4 -6 0 -24 -9 -39 l-16 -27 20 24 c24 27 26 37 9 47
-7 4 -8 3 -4 -5z"/>
<path d="M42125 12680 c3 -5 8 -10 11 -10 2 0 4 5 4 10 0 6 -5 10 -11 10 -5 0
-7 -4 -4 -10z"/>
<path d="M41850 12179 c0 -5 5 -7 10 -4 6 3 10 8 10 11 0 2 -4 4 -10 4 -5 0
-10 -5 -10 -11z"/>
<path d="M41426 11371 c-19 -7 -19 -8 0 -13 13 -3 21 0 21 8 0 8 -1 14 -1 13
-1 0 -10 -4 -20 -8z"/>
<path d="M41354 11246 c-10 -8 -17 -16 -14 -19 3 -2 14 4 24 14 23 22 18 25
-10 5z"/>
<path d="M41290 11155 c0 -8 2 -15 4 -15 2 0 6 7 10 15 3 8 1 15 -4 15 -6 0
-10 -7 -10 -15z"/>
<path d="M41246 11104 c-5 -14 -4 -15 9 -4 17 14 19 20 6 20 -5 0 -12 -7 -15
-16z"/>
<path d="M41150 10976 c0 -8 4 -17 9 -20 5 -4 7 3 4 14 -6 23 -13 26 -13 6z"/>
<path d="M41097 10905 c3 -8 9 -12 14 -9 12 7 11 11 -5 17 -10 4 -13 1 -9 -8z"/>
<path d="M40615 10200 c-16 -7 -17 -9 -3 -9 9 -1 20 4 23 9 7 11 7 11 -20 0z"/>
<path d="M40410 9982 c0 -5 7 -9 15 -9 8 0 15 4 15 9 0 4 -7 8 -15 8 -8 0 -15
-4 -15 -8z"/>
<path d="M40256 9827 c3 -10 9 -15 12 -12 3 3 0 11 -7 18 -10 9 -11 8 -5 -6z"/>
<path d="M39955 9450 c-16 -17 -16 -20 -3 -15 9 4 19 13 22 21 7 19 2 18 -19
-6z"/>
<path d="M39526 9043 c-6 -14 -5 -15 5 -6 7 7 10 15 7 18 -3 3 -9 -2 -12 -12z"/>
<path d="M39117 8673 c-4 -3 -7 -15 -7 -26 0 -25 13 -14 17 13 3 21 1 24 -10
13z"/>
<path d="M39000 8556 c0 -2 7 -7 16 -10 8 -3 12 -2 9 4 -6 10 -25 14 -25 6z"/>
<path d="M38517 8133 c-4 -3 -7 -13 -7 -22 1 -13 3 -12 15 3 8 11 15 14 15 8
0 -7 5 -12 11 -12 8 0 8 5 -1 15 -14 16 -23 19 -33 8z"/>
<path d="M38323 7965 c-3 -9 -3 -18 -1 -21 3 -3 8 4 11 16 6 23 -1 27 -10 5z"/>
<path d="M38240 7920 c0 -5 5 -10 11 -10 5 0 7 5 4 10 -3 6 -8 10 -11 10 -2 0
-4 -4 -4 -10z"/>
<path d="M38200 7885 c-11 -13 -10 -14 4 -9 9 3 16 10 16 15 0 13 -6 11 -20
-6z"/>
<path d="M37500 7391 c-14 -27 -13 -34 3 -19 8 7 14 18 14 25 0 18 -5 16 -17
-6z"/>
<path d="M37380 7310 c-9 -6 -10 -10 -3 -10 6 0 15 5 18 10 8 12 4 12 -15 0z"/>
<path d="M37230 7226 c0 -2 6 -9 14 -15 10 -9 15 -8 19 2 3 8 -3 13 -14 14
-10 1 -19 0 -19 -1z"/>
<path d="M37213 7195 c0 -8 4 -12 9 -9 5 3 6 10 3 15 -9 13 -12 11 -12 -6z"/>
<path d="M37016 7078 c3 -5 10 -6 15 -3 13 9 11 12 -6 12 -8 0 -12 -4 -9 -9z"/>
<path d="M36356 6644 c-4 -9 -4 -19 -1 -22 2 -3 7 3 11 12 4 9 4 19 1 22 -2 3
-7 -3 -11 -12z"/>
<path d="M36306 6635 c-3 -9 -2 -13 3 -10 6 3 15 -3 21 -12 9 -16 10 -15 8 6
-4 29 -23 39 -32 16z"/>
<path d="M35297 6036 c-9 -7 -17 -19 -17 -27 0 -9 3 -9 13 3 6 9 19 18 27 20
7 2 10 7 4 10 -5 4 -17 1 -27 -6z"/>
<path d="M34957 5813 c-10 -10 -8 -45 2 -39 11 7 21 46 12 46 -4 0 -11 -3 -14
-7z"/>
<path d="M34804 5705 c10 -8 24 -11 29 -8 6 4 2 10 -9 14 -31 12 -40 9 -20 -6z"/>
<path d="M34644 5655 c-13 -11 -14 -14 -4 -13 8 2 18 7 22 12 4 6 14 4 25 -5
16 -13 17 -13 4 4 -16 21 -22 21 -47 2z"/>
<path d="M34181 5441 c-8 -5 -9 -11 -3 -15 5 -3 12 1 16 9 6 17 6 18 -13 6z"/>
<path d="M33720 5160 c-9 -6 -10 -10 -3 -10 6 0 15 5 18 10 8 12 4 12 -15 0z"/>
<path d="M33550 5116 c0 -2 8 -10 18 -17 15 -13 16 -12 3 4 -13 16 -21 21 -21
13z"/>
<path d="M32426 4585 c4 -8 10 -12 15 -9 11 6 2 24 -11 24 -5 0 -7 -7 -4 -15z"/>
<path d="M31759 4333 c-13 -16 -12 -17 4 -4 16 13 21 21 13 21 -2 0 -10 -8
-17 -17z"/>
<path d="M31620 4300 c-13 -8 -12 -10 3 -10 9 0 17 5 17 10 0 12 -1 12 -20 0z"/>
<path d="M31628 4273 c6 -2 18 -2 25 0 6 3 1 5 -13 5 -14 0 -19 -2 -12 -5z"/>
<path d="M30769 3873 c-13 -16 -12 -17 4 -4 9 7 17 15 17 17 0 8 -8 3 -21 -13z"/>
<path d="M30236 3701 c-18 -7 -18 -8 -2 -14 19 -8 36 -1 36 14 0 10 -7 11 -34
0z"/>
<path d="M30280 3689 c0 -5 5 -7 10 -4 6 3 10 8 10 11 0 2 -4 4 -10 4 -5 0
-10 -5 -10 -11z"/>
<path d="M30030 3631 c-20 -6 -22 -8 -8 -13 9 -4 24 0 35 7 19 15 12 17 -27 6z"/>
<path d="M29915 3590 c-4 -6 0 -10 7 -10 9 0 9 -3 -2 -10 -8 -5 -10 -10 -4
-10 6 0 17 6 23 14 9 10 8 15 -3 19 -9 4 -18 2 -21 -3z"/>
<path d="M29637 3497 c-3 -8 1 -14 8 -14 7 0 11 6 8 14 -3 7 -6 13 -8 13 -2 0
-5 -6 -8 -13z"/>
<path d="M29560 3470 c-12 -8 -10 -10 8 -10 13 0 20 4 17 10 -7 12 -6 12 -25
0z"/>
<path d="M29335 3370 c-3 -5 -2 -10 4 -10 5 0 13 5 16 10 3 6 2 10 -4 10 -5 0
-13 -4 -16 -10z"/>
<path d="M29236 3312 c-3 -5 1 -9 9 -9 8 0 12 4 9 9 -3 4 -7 8 -9 8 -2 0 -6
-4 -9 -8z"/>
<path d="M28792 3180 c0 -14 2 -19 5 -12 2 6 2 18 0 25 -3 6 -5 1 -5 -13z"/>
<path d="M28815 3179 c-4 -6 -5 -12 -2 -15 2 -3 7 2 10 11 7 17 1 20 -8 4z"/>
<path d="M28690 3146 c0 -2 7 -7 16 -10 8 -3 12 -2 9 4 -6 10 -25 14 -25 6z"/>
<path d="M28580 3130 c0 -6 7 -10 15 -10 8 0 15 2 15 4 0 2 -7 6 -15 10 -8 3
-15 1 -15 -4z"/>
<path d="M28500 3121 c0 -5 5 -13 10 -16 6 -3 10 -2 10 4 0 5 -4 13 -10 16 -5
3 -10 2 -10 -4z"/>
<path d="M28090 3020 c0 -5 5 -10 11 -10 5 0 7 5 4 10 -3 6 -8 10 -11 10 -2 0
-4 -4 -4 -10z"/>
<path d="M28070 3011 c0 -6 4 -13 10 -16 6 -3 7 1 4 9 -7 18 -14 21 -14 7z"/>
<path d="M27982 2990 c0 -14 2 -19 5 -12 2 6 2 18 0 25 -3 6 -5 1 -5 -13z"/>
<path d="M28013 3003 c-20 -7 -15 -23 7 -23 11 0 20 4 20 9 0 13 -12 19 -27
14z"/>
<path d="M27876 2951 c-4 -5 3 -7 14 -4 23 6 26 13 6 13 -8 0 -17 -4 -20 -9z"/>
<path d="M27390 2759 c0 -5 5 -7 10 -4 6 3 10 8 10 11 0 2 -4 4 -10 4 -5 0
-10 -5 -10 -11z"/>
<path d="M27260 2711 c0 -6 4 -13 10 -16 6 -3 7 1 4 9 -7 18 -14 21 -14 7z"/>
<path d="M27195 2670 c3 -5 8 -10 11 -10 2 0 4 5 4 10 0 6 -5 10 -11 10 -5 0
-7 -4 -4 -10z"/>
<path d="M26993 2625 c0 -8 4 -15 9 -15 4 0 8 4 8 9 0 6 -4 12 -8 15 -5 3 -9
-1 -9 -9z"/>
<path d="M27065 2630 c3 -5 8 -10 11 -10 2 0 4 5 4 10 0 6 -5 10 -11 10 -5 0
-7 -4 -4 -10z"/>
<path d="M26727 2535 c-4 -8 -1 -17 6 -21 7 -4 9 -4 5 1 -4 4 -3 14 3 22 7 8
8 13 1 13 -5 0 -12 -7 -15 -15z"/>
<path d="M26369 2423 c-13 -16 -12 -17 4 -4 9 7 17 15 17 17 0 8 -8 3 -21 -13z"/>
<path d="M26226 2421 c-4 -7 -5 -15 -2 -18 9 -9 19 4 14 18 -4 11 -6 11 -12 0z"/>
<path d="M25770 2232 c9 -19 30 -23 30 -5 0 4 -3 3 -7 0 -3 -4 -12 1 -20 11
-13 15 -13 15 -3 -6z"/>
<path d="M25315 2050 c3 -5 8 -10 11 -10 2 0 4 5 4 10 0 6 -5 10 -11 10 -5 0
-7 -4 -4 -10z"/>
<path d="M24610 1770 c0 -5 5 -10 10 -10 6 0 10 5 10 10 0 6 -4 10 -10 10 -5
0 -10 -4 -10 -10z"/>
<path d="M24516 1741 c-4 -7 -5 -15 -2 -18 9 -9 19 4 14 18 -4 11 -6 11 -12 0z"/>
<path d="M24390 1659 c0 -5 5 -7 10 -4 6 3 10 8 10 11 0 2 -4 4 -10 4 -5 0
-10 -5 -10 -11z"/>
<path d="M24024 1498 c-4 -6 -3 -8 4 -4 5 3 13 0 15 -6 3 -8 6 -6 6 5 1 19
-14 23 -25 5z"/>
<path d="M23690 1371 c0 -6 4 -12 8 -15 5 -3 9 1 9 9 0 8 -4 15 -9 15 -4 0 -8
-4 -8 -9z"/>
<path d="M23610 1340 c-9 -6 -10 -10 -3 -10 6 0 15 5 18 10 8 12 4 12 -15 0z"/>
<path d="M22840 985 c-7 -9 -10 -18 -6 -22 3 -3 6 -1 6 6 0 7 5 9 12 5 7 -5 8
-3 3 6 -6 10 -3 12 13 8 12 -4 20 -2 16 3 -8 14 -30 11 -44 -6z"/>
<path d="M22630 911 c0 -5 7 -11 15 -15 9 -3 15 0 15 9 0 8 -7 15 -15 15 -8 0
-15 -4 -15 -9z"/>
<path d="M22545 841 c-3 -5 -1 -12 4 -15 5 -3 11 1 15 9 6 16 -9 21 -19 6z"/>
<path d="M22296 714 c-18 -25 -18 -25 3 -12 11 7 23 18 25 25 9 22 -8 14 -28
-13z"/>
<path d="M21973 583 c4 -6 -5 -21 -20 -33 -16 -12 -22 -18 -14 -14 11 5 13 3
8 -9 -3 -10 -4 -17 -1 -17 2 0 9 11 14 25 5 14 17 25 27 25 10 0 25 5 33 11
12 9 12 10 -4 5 -10 -4 -26 -1 -34 6 -10 8 -13 9 -9 1z"/>
<path d="M21316 65 c8 -19 14 -19 14 0 0 8 -4 15 -10 15 -5 0 -7 -7 -4 -15z"/>
</g>
</svg>
